<?xml version="1.0" encoding="UTF-8" standalone="no"?>
<!DOCTYPE svg PUBLIC "-//W3C//DTD SVG 1.1//EN"
 "http://www.w3.org/Graphics/SVG/1.1/DTD/svg11.dtd">
<!-- Generated by graphviz version 2.26.3 (20100126.1600)
 -->
<!-- Title: controllers_diagram Pages: 1 -->
<svg width="710pt" height="809pt"
 viewBox="0.00 0.00 710.00 809.00" xmlns="http://www.w3.org/2000/svg" xmlns:xlink="http://www.w3.org/1999/xlink">
<g id="graph1" class="graph" transform="scale(1 1) rotate(0) translate(4 805)">
<title>controllers_diagram</title>
<polygon fill="white" stroke="white" points="-4,5 -4,-805 707,-805 707,5 -4,5"/>
<!-- _diagram_info -->
<g id="node1" class="node"><title>_diagram_info</title>
<text text-anchor="start" x="114" y="-540.3" font-family="Times Roman,serif" font-size="13.00">Controllers diagram</text>
<text text-anchor="start" x="114" y="-523.3" font-family="Times Roman,serif" font-size="13.00">Date: Aug 27 2012 &#45; 20:19</text>
<text text-anchor="start" x="114" y="-506.3" font-family="Times Roman,serif" font-size="13.00">Migration version: 20120828001231</text>
<text text-anchor="start" x="114" y="-489.3" font-family="Times Roman,serif" font-size="13.00">Generated by RailRoady 1.0.8</text>
<text text-anchor="start" x="114" y="-472.3" font-family="Times Roman,serif" font-size="13.00">http://railroady.prestonlee.com</text>
</g>
<!-- RecipientsController -->
<g id="node2" class="node"><title>RecipientsController</title>
<polyline fill="none" stroke="black" points="181,-211.5 312,-211.5 "/>
<path fill="none" stroke="black" d="M312,-211.5C318,-211.5 324,-217.5 324,-223.5"/>
<polyline fill="none" stroke="black" points="324,-223.5 324,-409.5 "/>
<path fill="none" stroke="black" d="M324,-409.5C324,-415.5 318,-421.5 312,-421.5"/>
<polyline fill="none" stroke="black" points="312,-421.5 181,-421.5 "/>
<path fill="none" stroke="black" d="M181,-421.5C175,-421.5 169,-415.5 169,-409.5"/>
<polyline fill="none" stroke="black" points="169,-409.5 169,-223.5 "/>
<path fill="none" stroke="black" d="M169,-223.5C169,-217.5 175,-211.5 181,-211.5"/>
<text text-anchor="middle" x="246.5" y="-404.9" font-family="Times Roman,serif" font-size="14.00">RecipientsController</text>
<polyline fill="none" stroke="black" points="169,-395.5 324,-395.5 "/>
<text text-anchor="start" x="177" y="-378.9" font-family="Times Roman,serif" font-size="14.00">create</text>
<text text-anchor="start" x="177" y="-360.9" font-family="Times Roman,serif" font-size="14.00">destroy</text>
<text text-anchor="start" x="177" y="-342.9" font-family="Times Roman,serif" font-size="14.00">edit</text>
<text text-anchor="start" x="177" y="-324.9" font-family="Times Roman,serif" font-size="14.00">index</text>
<text text-anchor="start" x="177" y="-306.9" font-family="Times Roman,serif" font-size="14.00">new</text>
<text text-anchor="start" x="177" y="-288.9" font-family="Times Roman,serif" font-size="14.00">show</text>
<text text-anchor="start" x="177" y="-270.9" font-family="Times Roman,serif" font-size="14.00">update</text>
<polyline fill="none" stroke="black" points="169,-261.5 324,-261.5 "/>
<polyline fill="none" stroke="black" points="169,-237.5 324,-237.5 "/>
<text text-anchor="start" x="177" y="-220.9" font-family="Times Roman,serif" font-size="14.00">_layout</text>
</g>
<!-- GroupsController -->
<g id="node3" class="node"><title>GroupsController</title>
<polyline fill="none" stroke="black" points="13,-211.5 124,-211.5 "/>
<path fill="none" stroke="black" d="M124,-211.5C130,-211.5 136,-217.5 136,-223.5"/>
<polyline fill="none" stroke="black" points="136,-223.5 136,-409.5 "/>
<path fill="none" stroke="black" d="M136,-409.5C136,-415.5 130,-421.5 124,-421.5"/>
<polyline fill="none" stroke="black" points="124,-421.5 13,-421.5 "/>
<path fill="none" stroke="black" d="M13,-421.5C7,-421.5 1,-415.5 1,-409.5"/>
<polyline fill="none" stroke="black" points="1,-409.5 1,-223.5 "/>
<path fill="none" stroke="black" d="M1,-223.5C1,-217.5 7,-211.5 13,-211.5"/>
<text text-anchor="middle" x="68.5" y="-404.9" font-family="Times Roman,serif" font-size="14.00">GroupsController</text>
<polyline fill="none" stroke="black" points="1,-395.5 136,-395.5 "/>
<text text-anchor="start" x="9" y="-378.9" font-family="Times Roman,serif" font-size="14.00">create</text>
<text text-anchor="start" x="9" y="-360.9" font-family="Times Roman,serif" font-size="14.00">destroy</text>
<text text-anchor="start" x="9" y="-342.9" font-family="Times Roman,serif" font-size="14.00">edit</text>
<text text-anchor="start" x="9" y="-324.9" font-family="Times Roman,serif" font-size="14.00">index</text>
<text text-anchor="start" x="9" y="-306.9" font-family="Times Roman,serif" font-size="14.00">new</text>
<text text-anchor="start" x="9" y="-288.9" font-family="Times Roman,serif" font-size="14.00">show</text>
<text text-anchor="start" x="9" y="-270.9" font-family="Times Roman,serif" font-size="14.00">update</text>
<polyline fill="none" stroke="black" points="1,-261.5 136,-261.5 "/>
<polyline fill="none" stroke="black" points="1,-237.5 136,-237.5 "/>
<text text-anchor="start" x="9" y="-220.9" font-family="Times Roman,serif" font-size="14.00">_layout</text>
</g>
<!-- EmailBlastsController -->
<g id="node4" class="node"><title>EmailBlastsController</title>
<polyline fill="none" stroke="black" points="370,-211.5 510,-211.5 "/>
<path fill="none" stroke="black" d="M510,-211.5C516,-211.5 522,-217.5 522,-223.5"/>
<polyline fill="none" stroke="black" points="522,-223.5 522,-409.5 "/>
<path fill="none" stroke="black" d="M522,-409.5C522,-415.5 516,-421.5 510,-421.5"/>
<polyline fill="none" stroke="black" points="510,-421.5 370,-421.5 "/>
<path fill="none" stroke="black" d="M370,-421.5C364,-421.5 358,-415.5 358,-409.5"/>
<polyline fill="none" stroke="black" points="358,-409.5 358,-223.5 "/>
<path fill="none" stroke="black" d="M358,-223.5C358,-217.5 364,-211.5 370,-211.5"/>
<text text-anchor="middle" x="440" y="-404.9" font-family="Times Roman,serif" font-size="14.00">EmailBlastsController</text>
<polyline fill="none" stroke="black" points="358,-395.5 522,-395.5 "/>
<text text-anchor="start" x="366" y="-378.9" font-family="Times Roman,serif" font-size="14.00">create</text>
<text text-anchor="start" x="366" y="-360.9" font-family="Times Roman,serif" font-size="14.00">destroy</text>
<text text-anchor="start" x="366" y="-342.9" font-family="Times Roman,serif" font-size="14.00">edit</text>
<text text-anchor="start" x="366" y="-324.9" font-family="Times Roman,serif" font-size="14.00">index</text>
<text text-anchor="start" x="366" y="-306.9" font-family="Times Roman,serif" font-size="14.00">new</text>
<text text-anchor="start" x="366" y="-288.9" font-family="Times Roman,serif" font-size="14.00">show</text>
<text text-anchor="start" x="366" y="-270.9" font-family="Times Roman,serif" font-size="14.00">update</text>
<polyline fill="none" stroke="black" points="358,-261.5 522,-261.5 "/>
<polyline fill="none" stroke="black" points="358,-237.5 522,-237.5 "/>
<text text-anchor="start" x="366" y="-220.9" font-family="Times Roman,serif" font-size="14.00">_layout</text>
</g>
<!-- ApplicationController -->
<g id="node5" class="node"><title>ApplicationController</title>
<polyline fill="none" stroke="black" points="265,-64.5 479,-64.5 "/>
<path fill="none" stroke="black" d="M479,-64.5C485,-64.5 491,-70.5 491,-76.5"/>
<polyline fill="none" stroke="black" points="491,-76.5 491,-154.5 "/>
<path fill="none" stroke="black" d="M491,-154.5C491,-160.5 485,-166.5 479,-166.5"/>
<polyline fill="none" stroke="black" points="479,-166.5 265,-166.5 "/>
<path fill="none" stroke="black" d="M265,-166.5C259,-166.5 253,-160.5 253,-154.5"/>
<polyline fill="none" stroke="black" points="253,-154.5 253,-76.5 "/>
<path fill="none" stroke="black" d="M253,-76.5C253,-70.5 259,-64.5 265,-64.5"/>
<text text-anchor="middle" x="372" y="-149.9" font-family="Times Roman,serif" font-size="14.00">ApplicationController</text>
<polyline fill="none" stroke="black" points="253,-140.5 491,-140.5 "/>
<text text-anchor="start" x="261" y="-123.9" font-family="Times Roman,serif" font-size="14.00">_one_time_conditions_valid_80?</text>
<polyline fill="none" stroke="black" points="253,-114.5 491,-114.5 "/>
<polyline fill="none" stroke="black" points="253,-90.5 491,-90.5 "/>
<text text-anchor="start" x="261" y="-73.9" font-family="Times Roman,serif" font-size="14.00">_layout</text>
</g>
<!-- SettingsController -->
<g id="node6" class="node"><title>SettingsController</title>
<polyline fill="none" stroke="black" points="223,-589.5 342,-589.5 "/>
<path fill="none" stroke="black" d="M342,-589.5C348,-589.5 354,-595.5 354,-601.5"/>
<polyline fill="none" stroke="black" points="354,-601.5 354,-787.5 "/>
<path fill="none" stroke="black" d="M354,-787.5C354,-793.5 348,-799.5 342,-799.5"/>
<polyline fill="none" stroke="black" points="342,-799.5 223,-799.5 "/>
<path fill="none" stroke="black" d="M223,-799.5C217,-799.5 211,-793.5 211,-787.5"/>
<polyline fill="none" stroke="black" points="211,-787.5 211,-601.5 "/>
<path fill="none" stroke="black" d="M211,-601.5C211,-595.5 217,-589.5 223,-589.5"/>
<text text-anchor="middle" x="282.5" y="-782.9" font-family="Times Roman,serif" font-size="14.00">SettingsController</text>
<polyline fill="none" stroke="black" points="211,-773.5 354,-773.5 "/>
<text text-anchor="start" x="219" y="-756.9" font-family="Times Roman,serif" font-size="14.00">create</text>
<text text-anchor="start" x="219" y="-738.9" font-family="Times Roman,serif" font-size="14.00">destroy</text>
<text text-anchor="start" x="219" y="-720.9" font-family="Times Roman,serif" font-size="14.00">edit</text>
<text text-anchor="start" x="219" y="-702.9" font-family="Times Roman,serif" font-size="14.00">index</text>
<text text-anchor="start" x="219" y="-684.9" font-family="Times Roman,serif" font-size="14.00">new</text>
<text text-anchor="start" x="219" y="-666.9" font-family="Times Roman,serif" font-size="14.00">show</text>
<text text-anchor="start" x="219" y="-648.9" font-family="Times Roman,serif" font-size="14.00">update</text>
<polyline fill="none" stroke="black" points="211,-639.5 354,-639.5 "/>
<polyline fill="none" stroke="black" points="211,-615.5 354,-615.5 "/>
<text text-anchor="start" x="219" y="-598.9" font-family="Times Roman,serif" font-size="14.00">_layout</text>
</g>
<!-- TextBlastsController -->
<g id="node7" class="node"><title>TextBlastsController</title>
<polyline fill="none" stroke="black" points="412,-463.5 544,-463.5 "/>
<path fill="none" stroke="black" d="M544,-463.5C550,-463.5 556,-469.5 556,-475.5"/>
<polyline fill="none" stroke="black" points="556,-475.5 556,-661.5 "/>
<path fill="none" stroke="black" d="M556,-661.5C556,-667.5 550,-673.5 544,-673.5"/>
<polyline fill="none" stroke="black" points="544,-673.5 412,-673.5 "/>
<path fill="none" stroke="black" d="M412,-673.5C406,-673.5 400,-667.5 400,-661.5"/>
<polyline fill="none" stroke="black" points="400,-661.5 400,-475.5 "/>
<path fill="none" stroke="black" d="M400,-475.5C400,-469.5 406,-463.5 412,-463.5"/>
<text text-anchor="middle" x="478" y="-656.9" font-family="Times Roman,serif" font-size="14.00">TextBlastsController</text>
<polyline fill="none" stroke="black" points="400,-647.5 556,-647.5 "/>
<text text-anchor="start" x="408" y="-630.9" font-family="Times Roman,serif" font-size="14.00">create</text>
<text text-anchor="start" x="408" y="-612.9" font-family="Times Roman,serif" font-size="14.00">destroy</text>
<text text-anchor="start" x="408" y="-594.9" font-family="Times Roman,serif" font-size="14.00">edit</text>
<text text-anchor="start" x="408" y="-576.9" font-family="Times Roman,serif" font-size="14.00">index</text>
<text text-anchor="start" x="408" y="-558.9" font-family="Times Roman,serif" font-size="14.00">new</text>
<text text-anchor="start" x="408" y="-540.9" font-family="Times Roman,serif" font-size="14.00">show</text>
<text text-anchor="start" x="408" y="-522.9" font-family="Times Roman,serif" font-size="14.00">update</text>
<polyline fill="none" stroke="black" points="400,-513.5 556,-513.5 "/>
<polyline fill="none" stroke="black" points="400,-489.5 556,-489.5 "/>
<text text-anchor="start" x="408" y="-472.9" font-family="Times Roman,serif" font-size="14.00">_layout</text>
</g>
<!-- VenuesController -->
<g id="node8" class="node"><title>VenuesController</title>
<polyline fill="none" stroke="black" points="55,-589.5 167,-589.5 "/>
<path fill="none" stroke="black" d="M167,-589.5C173,-589.5 179,-595.5 179,-601.5"/>
<polyline fill="none" stroke="black" points="179,-601.5 179,-787.5 "/>
<path fill="none" stroke="black" d="M179,-787.5C179,-793.5 173,-799.5 167,-799.5"/>
<polyline fill="none" stroke="black" points="167,-799.5 55,-799.5 "/>
<path fill="none" stroke="black" d="M55,-799.5C49,-799.5 43,-793.5 43,-787.5"/>
<polyline fill="none" stroke="black" points="43,-787.5 43,-601.5 "/>
<path fill="none" stroke="black" d="M43,-601.5C43,-595.5 49,-589.5 55,-589.5"/>
<text text-anchor="middle" x="111" y="-782.9" font-family="Times Roman,serif" font-size="14.00">VenuesController</text>
<polyline fill="none" stroke="black" points="43,-773.5 179,-773.5 "/>
<text text-anchor="start" x="51" y="-756.9" font-family="Times Roman,serif" font-size="14.00">create</text>
<text text-anchor="start" x="51" y="-738.9" font-family="Times Roman,serif" font-size="14.00">destroy</text>
<text text-anchor="start" x="51" y="-720.9" font-family="Times Roman,serif" font-size="14.00">edit</text>
<text text-anchor="start" x="51" y="-702.9" font-family="Times Roman,serif" font-size="14.00">index</text>
<text text-anchor="start" x="51" y="-684.9" font-family="Times Roman,serif" font-size="14.00">new</text>
<text text-anchor="start" x="51" y="-666.9" font-family="Times Roman,serif" font-size="14.00">show</text>
<text text-anchor="start" x="51" y="-648.9" font-family="Times Roman,serif" font-size="14.00">update</text>
<polyline fill="none" stroke="black" points="43,-639.5 179,-639.5 "/>
<polyline fill="none" stroke="black" points="43,-615.5 179,-615.5 "/>
<text text-anchor="start" x="51" y="-598.9" font-family="Times Roman,serif" font-size="14.00">_layout</text>
</g>
<!-- EventsController -->
<g id="node9" class="node"><title>EventsController</title>
<polyline fill="none" stroke="black" points="580,-1.5 689,-1.5 "/>
<path fill="none" stroke="black" d="M689,-1.5C695,-1.5 701,-7.5 701,-13.5"/>
<polyline fill="none" stroke="black" points="701,-13.5 701,-199.5 "/>
<path fill="none" stroke="black" d="M701,-199.5C701,-205.5 695,-211.5 689,-211.5"/>
<polyline fill="none" stroke="black" points="689,-211.5 580,-211.5 "/>
<path fill="none" stroke="black" d="M580,-211.5C574,-211.5 568,-205.5 568,-199.5"/>
<polyline fill="none" stroke="black" points="568,-199.5 568,-13.5 "/>
<path fill="none" stroke="black" d="M568,-13.5C568,-7.5 574,-1.5 580,-1.5"/>
<text text-anchor="middle" x="634.5" y="-194.9" font-family="Times Roman,serif" font-size="14.00">EventsController</text>
<polyline fill="none" stroke="black" points="568,-185.5 701,-185.5 "/>
<text text-anchor="start" x="576" y="-168.9" font-family="Times Roman,serif" font-size="14.00">create</text>
<text text-anchor="start" x="576" y="-150.9" font-family="Times Roman,serif" font-size="14.00">destroy</text>
<text text-anchor="start" x="576" y="-132.9" font-family="Times Roman,serif" font-size="14.00">edit</text>
<text text-anchor="start" x="576" y="-114.9" font-family="Times Roman,serif" font-size="14.00">index</text>
<text text-anchor="start" x="576" y="-96.9" font-family="Times Roman,serif" font-size="14.00">new</text>
<text text-anchor="start" x="576" y="-78.9" font-family="Times Roman,serif" font-size="14.00">show</text>
<text text-anchor="start" x="576" y="-60.9" font-family="Times Roman,serif" font-size="14.00">update</text>
<polyline fill="none" stroke="black" points="568,-51.5 701,-51.5 "/>
<polyline fill="none" stroke="black" points="568,-27.5 701,-27.5 "/>
<text text-anchor="start" x="576" y="-10.9" font-family="Times Roman,serif" font-size="14.00">_layout</text>
</g>
</g>
</svg>
