<?xml version="1.0" encoding="UTF-8" standalone="no"?>
<!DOCTYPE svg PUBLIC "-//W3C//DTD SVG 1.1//EN"
 "http://www.w3.org/Graphics/SVG/1.1/DTD/svg11.dtd">
<!-- Generated by graphviz version 2.26.3 (20100126.1600)
 -->
<!-- Title: controllers_diagram Pages: 1 -->
<svg width="703pt" height="741pt"
 viewBox="0.00 0.00 703.00 741.00" xmlns="http://www.w3.org/2000/svg" xmlns:xlink="http://www.w3.org/1999/xlink">
<g id="graph1" class="graph" transform="scale(1 1) rotate(0) translate(4 737)">
<title>controllers_diagram</title>
<polygon fill="white" stroke="white" points="-4,5 -4,-737 700,-737 700,5 -4,5"/>
<!-- _diagram_info -->
<g id="node1" class="node"><title>_diagram_info</title>
<text text-anchor="start" x="429" y="-458.3" font-family="Times Roman,serif" font-size="13.00">Controllers diagram</text>
<text text-anchor="start" x="429" y="-441.3" font-family="Times Roman,serif" font-size="13.00">Date: Aug 27 2012 &#45; 18:23</text>
<text text-anchor="start" x="429" y="-424.3" font-family="Times Roman,serif" font-size="13.00">Migration version: 20120827221344</text>
<text text-anchor="start" x="429" y="-407.3" font-family="Times Roman,serif" font-size="13.00">Generated by RailRoady 1.0.8</text>
<text text-anchor="start" x="429" y="-390.3" font-family="Times Roman,serif" font-size="13.00">http://railroady.prestonlee.com</text>
</g>
<!-- RecipientsController -->
<g id="node2" class="node"><title>RecipientsController</title>
<polyline fill="none" stroke="black" points="393,-141.5 524,-141.5 "/>
<path fill="none" stroke="black" d="M524,-141.5C530,-141.5 536,-147.5 536,-153.5"/>
<polyline fill="none" stroke="black" points="536,-153.5 536,-339.5 "/>
<path fill="none" stroke="black" d="M536,-339.5C536,-345.5 530,-351.5 524,-351.5"/>
<polyline fill="none" stroke="black" points="524,-351.5 393,-351.5 "/>
<path fill="none" stroke="black" d="M393,-351.5C387,-351.5 381,-345.5 381,-339.5"/>
<polyline fill="none" stroke="black" points="381,-339.5 381,-153.5 "/>
<path fill="none" stroke="black" d="M381,-153.5C381,-147.5 387,-141.5 393,-141.5"/>
<text text-anchor="middle" x="458.5" y="-334.9" font-family="Times Roman,serif" font-size="14.00">RecipientsController</text>
<polyline fill="none" stroke="black" points="381,-325.5 536,-325.5 "/>
<text text-anchor="start" x="389" y="-308.9" font-family="Times Roman,serif" font-size="14.00">create</text>
<text text-anchor="start" x="389" y="-290.9" font-family="Times Roman,serif" font-size="14.00">destroy</text>
<text text-anchor="start" x="389" y="-272.9" font-family="Times Roman,serif" font-size="14.00">edit</text>
<text text-anchor="start" x="389" y="-254.9" font-family="Times Roman,serif" font-size="14.00">index</text>
<text text-anchor="start" x="389" y="-236.9" font-family="Times Roman,serif" font-size="14.00">new</text>
<text text-anchor="start" x="389" y="-218.9" font-family="Times Roman,serif" font-size="14.00">show</text>
<text text-anchor="start" x="389" y="-200.9" font-family="Times Roman,serif" font-size="14.00">update</text>
<polyline fill="none" stroke="black" points="381,-191.5 536,-191.5 "/>
<polyline fill="none" stroke="black" points="381,-167.5 536,-167.5 "/>
<text text-anchor="start" x="389" y="-150.9" font-family="Times Roman,serif" font-size="14.00">_layout</text>
</g>
<!-- GroupsController -->
<g id="node3" class="node"><title>GroupsController</title>
<polyline fill="none" stroke="black" points="13,-241.5 124,-241.5 "/>
<path fill="none" stroke="black" d="M124,-241.5C130,-241.5 136,-247.5 136,-253.5"/>
<polyline fill="none" stroke="black" points="136,-253.5 136,-439.5 "/>
<path fill="none" stroke="black" d="M136,-439.5C136,-445.5 130,-451.5 124,-451.5"/>
<polyline fill="none" stroke="black" points="124,-451.5 13,-451.5 "/>
<path fill="none" stroke="black" d="M13,-451.5C7,-451.5 1,-445.5 1,-439.5"/>
<polyline fill="none" stroke="black" points="1,-439.5 1,-253.5 "/>
<path fill="none" stroke="black" d="M1,-253.5C1,-247.5 7,-241.5 13,-241.5"/>
<text text-anchor="middle" x="68.5" y="-434.9" font-family="Times Roman,serif" font-size="14.00">GroupsController</text>
<polyline fill="none" stroke="black" points="1,-425.5 136,-425.5 "/>
<text text-anchor="start" x="9" y="-408.9" font-family="Times Roman,serif" font-size="14.00">create</text>
<text text-anchor="start" x="9" y="-390.9" font-family="Times Roman,serif" font-size="14.00">destroy</text>
<text text-anchor="start" x="9" y="-372.9" font-family="Times Roman,serif" font-size="14.00">edit</text>
<text text-anchor="start" x="9" y="-354.9" font-family="Times Roman,serif" font-size="14.00">index</text>
<text text-anchor="start" x="9" y="-336.9" font-family="Times Roman,serif" font-size="14.00">new</text>
<text text-anchor="start" x="9" y="-318.9" font-family="Times Roman,serif" font-size="14.00">show</text>
<text text-anchor="start" x="9" y="-300.9" font-family="Times Roman,serif" font-size="14.00">update</text>
<polyline fill="none" stroke="black" points="1,-291.5 136,-291.5 "/>
<polyline fill="none" stroke="black" points="1,-267.5 136,-267.5 "/>
<text text-anchor="start" x="9" y="-250.9" font-family="Times Roman,serif" font-size="14.00">_layout</text>
</g>
<!-- EmailBlastsController -->
<g id="node4" class="node"><title>EmailBlastsController</title>
<polyline fill="none" stroke="black" points="193,-121.5 333,-121.5 "/>
<path fill="none" stroke="black" d="M333,-121.5C339,-121.5 345,-127.5 345,-133.5"/>
<polyline fill="none" stroke="black" points="345,-133.5 345,-319.5 "/>
<path fill="none" stroke="black" d="M345,-319.5C345,-325.5 339,-331.5 333,-331.5"/>
<polyline fill="none" stroke="black" points="333,-331.5 193,-331.5 "/>
<path fill="none" stroke="black" d="M193,-331.5C187,-331.5 181,-325.5 181,-319.5"/>
<polyline fill="none" stroke="black" points="181,-319.5 181,-133.5 "/>
<path fill="none" stroke="black" d="M181,-133.5C181,-127.5 187,-121.5 193,-121.5"/>
<text text-anchor="middle" x="263" y="-314.9" font-family="Times Roman,serif" font-size="14.00">EmailBlastsController</text>
<polyline fill="none" stroke="black" points="181,-305.5 345,-305.5 "/>
<text text-anchor="start" x="189" y="-288.9" font-family="Times Roman,serif" font-size="14.00">create</text>
<text text-anchor="start" x="189" y="-270.9" font-family="Times Roman,serif" font-size="14.00">destroy</text>
<text text-anchor="start" x="189" y="-252.9" font-family="Times Roman,serif" font-size="14.00">edit</text>
<text text-anchor="start" x="189" y="-234.9" font-family="Times Roman,serif" font-size="14.00">index</text>
<text text-anchor="start" x="189" y="-216.9" font-family="Times Roman,serif" font-size="14.00">new</text>
<text text-anchor="start" x="189" y="-198.9" font-family="Times Roman,serif" font-size="14.00">show</text>
<text text-anchor="start" x="189" y="-180.9" font-family="Times Roman,serif" font-size="14.00">update</text>
<polyline fill="none" stroke="black" points="181,-171.5 345,-171.5 "/>
<polyline fill="none" stroke="black" points="181,-147.5 345,-147.5 "/>
<text text-anchor="start" x="189" y="-130.9" font-family="Times Roman,serif" font-size="14.00">_layout</text>
</g>
<!-- ApplicationController -->
<g id="node5" class="node"><title>ApplicationController</title>
<polyline fill="none" stroke="black" points="393,-1.5 607,-1.5 "/>
<path fill="none" stroke="black" d="M607,-1.5C613,-1.5 619,-7.5 619,-13.5"/>
<polyline fill="none" stroke="black" points="619,-13.5 619,-91.5 "/>
<path fill="none" stroke="black" d="M619,-91.5C619,-97.5 613,-103.5 607,-103.5"/>
<polyline fill="none" stroke="black" points="607,-103.5 393,-103.5 "/>
<path fill="none" stroke="black" d="M393,-103.5C387,-103.5 381,-97.5 381,-91.5"/>
<polyline fill="none" stroke="black" points="381,-91.5 381,-13.5 "/>
<path fill="none" stroke="black" d="M381,-13.5C381,-7.5 387,-1.5 393,-1.5"/>
<text text-anchor="middle" x="500" y="-86.9" font-family="Times Roman,serif" font-size="14.00">ApplicationController</text>
<polyline fill="none" stroke="black" points="381,-77.5 619,-77.5 "/>
<text text-anchor="start" x="389" y="-60.9" font-family="Times Roman,serif" font-size="14.00">_one_time_conditions_valid_56?</text>
<polyline fill="none" stroke="black" points="381,-51.5 619,-51.5 "/>
<polyline fill="none" stroke="black" points="381,-27.5 619,-27.5 "/>
<text text-anchor="start" x="389" y="-10.9" font-family="Times Roman,serif" font-size="14.00">_layout</text>
</g>
<!-- TextBlastsController -->
<g id="node6" class="node"><title>TextBlastsController</title>
<polyline fill="none" stroke="black" points="193,-361.5 325,-361.5 "/>
<path fill="none" stroke="black" d="M325,-361.5C331,-361.5 337,-367.5 337,-373.5"/>
<polyline fill="none" stroke="black" points="337,-373.5 337,-559.5 "/>
<path fill="none" stroke="black" d="M337,-559.5C337,-565.5 331,-571.5 325,-571.5"/>
<polyline fill="none" stroke="black" points="325,-571.5 193,-571.5 "/>
<path fill="none" stroke="black" d="M193,-571.5C187,-571.5 181,-565.5 181,-559.5"/>
<polyline fill="none" stroke="black" points="181,-559.5 181,-373.5 "/>
<path fill="none" stroke="black" d="M181,-373.5C181,-367.5 187,-361.5 193,-361.5"/>
<text text-anchor="middle" x="259" y="-554.9" font-family="Times Roman,serif" font-size="14.00">TextBlastsController</text>
<polyline fill="none" stroke="black" points="181,-545.5 337,-545.5 "/>
<text text-anchor="start" x="189" y="-528.9" font-family="Times Roman,serif" font-size="14.00">create</text>
<text text-anchor="start" x="189" y="-510.9" font-family="Times Roman,serif" font-size="14.00">destroy</text>
<text text-anchor="start" x="189" y="-492.9" font-family="Times Roman,serif" font-size="14.00">edit</text>
<text text-anchor="start" x="189" y="-474.9" font-family="Times Roman,serif" font-size="14.00">index</text>
<text text-anchor="start" x="189" y="-456.9" font-family="Times Roman,serif" font-size="14.00">new</text>
<text text-anchor="start" x="189" y="-438.9" font-family="Times Roman,serif" font-size="14.00">show</text>
<text text-anchor="start" x="189" y="-420.9" font-family="Times Roman,serif" font-size="14.00">update</text>
<polyline fill="none" stroke="black" points="181,-411.5 337,-411.5 "/>
<polyline fill="none" stroke="black" points="181,-387.5 337,-387.5 "/>
<text text-anchor="start" x="189" y="-370.9" font-family="Times Roman,serif" font-size="14.00">_layout</text>
</g>
<!-- VenuesController -->
<g id="node7" class="node"><title>VenuesController</title>
<polyline fill="none" stroke="black" points="13,-1.5 125,-1.5 "/>
<path fill="none" stroke="black" d="M125,-1.5C131,-1.5 137,-7.5 137,-13.5"/>
<polyline fill="none" stroke="black" points="137,-13.5 137,-199.5 "/>
<path fill="none" stroke="black" d="M137,-199.5C137,-205.5 131,-211.5 125,-211.5"/>
<polyline fill="none" stroke="black" points="125,-211.5 13,-211.5 "/>
<path fill="none" stroke="black" d="M13,-211.5C7,-211.5 1,-205.5 1,-199.5"/>
<polyline fill="none" stroke="black" points="1,-199.5 1,-13.5 "/>
<path fill="none" stroke="black" d="M1,-13.5C1,-7.5 7,-1.5 13,-1.5"/>
<text text-anchor="middle" x="69" y="-194.9" font-family="Times Roman,serif" font-size="14.00">VenuesController</text>
<polyline fill="none" stroke="black" points="1,-185.5 137,-185.5 "/>
<text text-anchor="start" x="9" y="-168.9" font-family="Times Roman,serif" font-size="14.00">create</text>
<text text-anchor="start" x="9" y="-150.9" font-family="Times Roman,serif" font-size="14.00">destroy</text>
<text text-anchor="start" x="9" y="-132.9" font-family="Times Roman,serif" font-size="14.00">edit</text>
<text text-anchor="start" x="9" y="-114.9" font-family="Times Roman,serif" font-size="14.00">index</text>
<text text-anchor="start" x="9" y="-96.9" font-family="Times Roman,serif" font-size="14.00">new</text>
<text text-anchor="start" x="9" y="-78.9" font-family="Times Roman,serif" font-size="14.00">show</text>
<text text-anchor="start" x="9" y="-60.9" font-family="Times Roman,serif" font-size="14.00">update</text>
<polyline fill="none" stroke="black" points="1,-51.5 137,-51.5 "/>
<polyline fill="none" stroke="black" points="1,-27.5 137,-27.5 "/>
<text text-anchor="start" x="9" y="-10.9" font-family="Times Roman,serif" font-size="14.00">_layout</text>
</g>
<!-- EventsController -->
<g id="node8" class="node"><title>EventsController</title>
<polyline fill="none" stroke="black" points="573,-521.5 682,-521.5 "/>
<path fill="none" stroke="black" d="M682,-521.5C688,-521.5 694,-527.5 694,-533.5"/>
<polyline fill="none" stroke="black" points="694,-533.5 694,-719.5 "/>
<path fill="none" stroke="black" d="M694,-719.5C694,-725.5 688,-731.5 682,-731.5"/>
<polyline fill="none" stroke="black" points="682,-731.5 573,-731.5 "/>
<path fill="none" stroke="black" d="M573,-731.5C567,-731.5 561,-725.5 561,-719.5"/>
<polyline fill="none" stroke="black" points="561,-719.5 561,-533.5 "/>
<path fill="none" stroke="black" d="M561,-533.5C561,-527.5 567,-521.5 573,-521.5"/>
<text text-anchor="middle" x="627.5" y="-714.9" font-family="Times Roman,serif" font-size="14.00">EventsController</text>
<polyline fill="none" stroke="black" points="561,-705.5 694,-705.5 "/>
<text text-anchor="start" x="569" y="-688.9" font-family="Times Roman,serif" font-size="14.00">create</text>
<text text-anchor="start" x="569" y="-670.9" font-family="Times Roman,serif" font-size="14.00">destroy</text>
<text text-anchor="start" x="569" y="-652.9" font-family="Times Roman,serif" font-size="14.00">edit</text>
<text text-anchor="start" x="569" y="-634.9" font-family="Times Roman,serif" font-size="14.00">index</text>
<text text-anchor="start" x="569" y="-616.9" font-family="Times Roman,serif" font-size="14.00">new</text>
<text text-anchor="start" x="569" y="-598.9" font-family="Times Roman,serif" font-size="14.00">show</text>
<text text-anchor="start" x="569" y="-580.9" font-family="Times Roman,serif" font-size="14.00">update</text>
<polyline fill="none" stroke="black" points="561,-571.5 694,-571.5 "/>
<polyline fill="none" stroke="black" points="561,-547.5 694,-547.5 "/>
<text text-anchor="start" x="569" y="-530.9" font-family="Times Roman,serif" font-size="14.00">_layout</text>
</g>
</g>
</svg>
