<?xml version="1.0" encoding="UTF-8" standalone="no"?>
<!DOCTYPE svg PUBLIC "-//W3C//DTD SVG 1.1//EN"
 "http://www.w3.org/Graphics/SVG/1.1/DTD/svg11.dtd">
<!-- Generated by graphviz version 2.26.3 (20100126.1600)
 -->
<!-- Title: controllers_diagram Pages: 1 -->
<svg width="755pt" height="741pt"
 viewBox="0.00 0.00 755.00 741.00" xmlns="http://www.w3.org/2000/svg" xmlns:xlink="http://www.w3.org/1999/xlink">
<g id="graph1" class="graph" transform="scale(1 1) rotate(0) translate(4 737)">
<title>controllers_diagram</title>
<polygon fill="white" stroke="white" points="-4,5 -4,-737 752,-737 752,5 -4,5"/>
<!-- _diagram_info -->
<g id="node1" class="node"><title>_diagram_info</title>
<text text-anchor="start" x="389" y="-98.3" font-family="Times Roman,serif" font-size="13.00">Controllers diagram</text>
<text text-anchor="start" x="389" y="-81.3" font-family="Times Roman,serif" font-size="13.00">Date: Aug 28 2012 &#45; 00:21</text>
<text text-anchor="start" x="389" y="-64.3" font-family="Times Roman,serif" font-size="13.00">Migration version: 20120828035755</text>
<text text-anchor="start" x="389" y="-47.3" font-family="Times Roman,serif" font-size="13.00">Generated by RailRoady 1.0.8</text>
<text text-anchor="start" x="389" y="-30.3" font-family="Times Roman,serif" font-size="13.00">http://railroady.prestonlee.com</text>
</g>
<!-- RecipientsController -->
<g id="node2" class="node"><title>RecipientsController</title>
<polyline fill="none" stroke="black" points="393,-161.5 524,-161.5 "/>
<path fill="none" stroke="black" d="M524,-161.5C530,-161.5 536,-167.5 536,-173.5"/>
<polyline fill="none" stroke="black" points="536,-173.5 536,-359.5 "/>
<path fill="none" stroke="black" d="M536,-359.5C536,-365.5 530,-371.5 524,-371.5"/>
<polyline fill="none" stroke="black" points="524,-371.5 393,-371.5 "/>
<path fill="none" stroke="black" d="M393,-371.5C387,-371.5 381,-365.5 381,-359.5"/>
<polyline fill="none" stroke="black" points="381,-359.5 381,-173.5 "/>
<path fill="none" stroke="black" d="M381,-173.5C381,-167.5 387,-161.5 393,-161.5"/>
<text text-anchor="middle" x="458.5" y="-354.9" font-family="Times Roman,serif" font-size="14.00">RecipientsController</text>
<polyline fill="none" stroke="black" points="381,-345.5 536,-345.5 "/>
<text text-anchor="start" x="389" y="-328.9" font-family="Times Roman,serif" font-size="14.00">create</text>
<text text-anchor="start" x="389" y="-310.9" font-family="Times Roman,serif" font-size="14.00">destroy</text>
<text text-anchor="start" x="389" y="-292.9" font-family="Times Roman,serif" font-size="14.00">edit</text>
<text text-anchor="start" x="389" y="-274.9" font-family="Times Roman,serif" font-size="14.00">index</text>
<text text-anchor="start" x="389" y="-256.9" font-family="Times Roman,serif" font-size="14.00">new</text>
<text text-anchor="start" x="389" y="-238.9" font-family="Times Roman,serif" font-size="14.00">show</text>
<text text-anchor="start" x="389" y="-220.9" font-family="Times Roman,serif" font-size="14.00">update</text>
<polyline fill="none" stroke="black" points="381,-211.5 536,-211.5 "/>
<polyline fill="none" stroke="black" points="381,-187.5 536,-187.5 "/>
<text text-anchor="start" x="389" y="-170.9" font-family="Times Roman,serif" font-size="14.00">_layout</text>
</g>
<!-- GroupsController -->
<g id="node3" class="node"><title>GroupsController</title>
<polyline fill="none" stroke="black" points="33,-521.5 144,-521.5 "/>
<path fill="none" stroke="black" d="M144,-521.5C150,-521.5 156,-527.5 156,-533.5"/>
<polyline fill="none" stroke="black" points="156,-533.5 156,-719.5 "/>
<path fill="none" stroke="black" d="M156,-719.5C156,-725.5 150,-731.5 144,-731.5"/>
<polyline fill="none" stroke="black" points="144,-731.5 33,-731.5 "/>
<path fill="none" stroke="black" d="M33,-731.5C27,-731.5 21,-725.5 21,-719.5"/>
<polyline fill="none" stroke="black" points="21,-719.5 21,-533.5 "/>
<path fill="none" stroke="black" d="M21,-533.5C21,-527.5 27,-521.5 33,-521.5"/>
<text text-anchor="middle" x="88.5" y="-714.9" font-family="Times Roman,serif" font-size="14.00">GroupsController</text>
<polyline fill="none" stroke="black" points="21,-705.5 156,-705.5 "/>
<text text-anchor="start" x="29" y="-688.9" font-family="Times Roman,serif" font-size="14.00">create</text>
<text text-anchor="start" x="29" y="-670.9" font-family="Times Roman,serif" font-size="14.00">destroy</text>
<text text-anchor="start" x="29" y="-652.9" font-family="Times Roman,serif" font-size="14.00">edit</text>
<text text-anchor="start" x="29" y="-634.9" font-family="Times Roman,serif" font-size="14.00">index</text>
<text text-anchor="start" x="29" y="-616.9" font-family="Times Roman,serif" font-size="14.00">new</text>
<text text-anchor="start" x="29" y="-598.9" font-family="Times Roman,serif" font-size="14.00">show</text>
<text text-anchor="start" x="29" y="-580.9" font-family="Times Roman,serif" font-size="14.00">update</text>
<polyline fill="none" stroke="black" points="21,-571.5 156,-571.5 "/>
<polyline fill="none" stroke="black" points="21,-547.5 156,-547.5 "/>
<text text-anchor="start" x="29" y="-530.9" font-family="Times Roman,serif" font-size="14.00">_layout</text>
</g>
<!-- EmailBlastsController -->
<g id="node4" class="node"><title>EmailBlastsController</title>
<polyline fill="none" stroke="black" points="193,-141.5 333,-141.5 "/>
<path fill="none" stroke="black" d="M333,-141.5C339,-141.5 345,-147.5 345,-153.5"/>
<polyline fill="none" stroke="black" points="345,-153.5 345,-339.5 "/>
<path fill="none" stroke="black" d="M345,-339.5C345,-345.5 339,-351.5 333,-351.5"/>
<polyline fill="none" stroke="black" points="333,-351.5 193,-351.5 "/>
<path fill="none" stroke="black" d="M193,-351.5C187,-351.5 181,-345.5 181,-339.5"/>
<polyline fill="none" stroke="black" points="181,-339.5 181,-153.5 "/>
<path fill="none" stroke="black" d="M181,-153.5C181,-147.5 187,-141.5 193,-141.5"/>
<text text-anchor="middle" x="263" y="-334.9" font-family="Times Roman,serif" font-size="14.00">EmailBlastsController</text>
<polyline fill="none" stroke="black" points="181,-325.5 345,-325.5 "/>
<text text-anchor="start" x="189" y="-308.9" font-family="Times Roman,serif" font-size="14.00">create</text>
<text text-anchor="start" x="189" y="-290.9" font-family="Times Roman,serif" font-size="14.00">destroy</text>
<text text-anchor="start" x="189" y="-272.9" font-family="Times Roman,serif" font-size="14.00">edit</text>
<text text-anchor="start" x="189" y="-254.9" font-family="Times Roman,serif" font-size="14.00">index</text>
<text text-anchor="start" x="189" y="-236.9" font-family="Times Roman,serif" font-size="14.00">new</text>
<text text-anchor="start" x="189" y="-218.9" font-family="Times Roman,serif" font-size="14.00">show</text>
<text text-anchor="start" x="189" y="-200.9" font-family="Times Roman,serif" font-size="14.00">update</text>
<polyline fill="none" stroke="black" points="181,-191.5 345,-191.5 "/>
<polyline fill="none" stroke="black" points="181,-167.5 345,-167.5 "/>
<text text-anchor="start" x="189" y="-150.9" font-family="Times Roman,serif" font-size="14.00">_layout</text>
</g>
<!-- ApplicationController -->
<g id="node5" class="node"><title>ApplicationController</title>
<polyline fill="none" stroke="black" points="33,-1.5 247,-1.5 "/>
<path fill="none" stroke="black" d="M247,-1.5C253,-1.5 259,-7.5 259,-13.5"/>
<polyline fill="none" stroke="black" points="259,-13.5 259,-91.5 "/>
<path fill="none" stroke="black" d="M259,-91.5C259,-97.5 253,-103.5 247,-103.5"/>
<polyline fill="none" stroke="black" points="247,-103.5 33,-103.5 "/>
<path fill="none" stroke="black" d="M33,-103.5C27,-103.5 21,-97.5 21,-91.5"/>
<polyline fill="none" stroke="black" points="21,-91.5 21,-13.5 "/>
<path fill="none" stroke="black" d="M21,-13.5C21,-7.5 27,-1.5 33,-1.5"/>
<text text-anchor="middle" x="140" y="-86.9" font-family="Times Roman,serif" font-size="14.00">ApplicationController</text>
<polyline fill="none" stroke="black" points="21,-77.5 259,-77.5 "/>
<text text-anchor="start" x="29" y="-60.9" font-family="Times Roman,serif" font-size="14.00">_one_time_conditions_valid_86?</text>
<polyline fill="none" stroke="black" points="21,-51.5 259,-51.5 "/>
<polyline fill="none" stroke="black" points="21,-27.5 259,-27.5 "/>
<text text-anchor="start" x="29" y="-10.9" font-family="Times Roman,serif" font-size="14.00">_layout</text>
</g>
<!-- SettingsController -->
<g id="node6" class="node"><title>SettingsController</title>
<polyline fill="none" stroke="black" points="213,-381.5 332,-381.5 "/>
<path fill="none" stroke="black" d="M332,-381.5C338,-381.5 344,-387.5 344,-393.5"/>
<polyline fill="none" stroke="black" points="344,-393.5 344,-579.5 "/>
<path fill="none" stroke="black" d="M344,-579.5C344,-585.5 338,-591.5 332,-591.5"/>
<polyline fill="none" stroke="black" points="332,-591.5 213,-591.5 "/>
<path fill="none" stroke="black" d="M213,-591.5C207,-591.5 201,-585.5 201,-579.5"/>
<polyline fill="none" stroke="black" points="201,-579.5 201,-393.5 "/>
<path fill="none" stroke="black" d="M201,-393.5C201,-387.5 207,-381.5 213,-381.5"/>
<text text-anchor="middle" x="272.5" y="-574.9" font-family="Times Roman,serif" font-size="14.00">SettingsController</text>
<polyline fill="none" stroke="black" points="201,-565.5 344,-565.5 "/>
<text text-anchor="start" x="209" y="-548.9" font-family="Times Roman,serif" font-size="14.00">create</text>
<text text-anchor="start" x="209" y="-530.9" font-family="Times Roman,serif" font-size="14.00">destroy</text>
<text text-anchor="start" x="209" y="-512.9" font-family="Times Roman,serif" font-size="14.00">edit</text>
<text text-anchor="start" x="209" y="-494.9" font-family="Times Roman,serif" font-size="14.00">index</text>
<text text-anchor="start" x="209" y="-476.9" font-family="Times Roman,serif" font-size="14.00">new</text>
<text text-anchor="start" x="209" y="-458.9" font-family="Times Roman,serif" font-size="14.00">show</text>
<text text-anchor="start" x="209" y="-440.9" font-family="Times Roman,serif" font-size="14.00">update</text>
<polyline fill="none" stroke="black" points="201,-431.5 344,-431.5 "/>
<polyline fill="none" stroke="black" points="201,-407.5 344,-407.5 "/>
<text text-anchor="start" x="209" y="-390.9" font-family="Times Roman,serif" font-size="14.00">_layout</text>
</g>
<!-- TextBlastsController -->
<g id="node7" class="node"><title>TextBlastsController</title>
<polyline fill="none" stroke="black" points="433,-401.5 565,-401.5 "/>
<path fill="none" stroke="black" d="M565,-401.5C571,-401.5 577,-407.5 577,-413.5"/>
<polyline fill="none" stroke="black" points="577,-413.5 577,-599.5 "/>
<path fill="none" stroke="black" d="M577,-599.5C577,-605.5 571,-611.5 565,-611.5"/>
<polyline fill="none" stroke="black" points="565,-611.5 433,-611.5 "/>
<path fill="none" stroke="black" d="M433,-611.5C427,-611.5 421,-605.5 421,-599.5"/>
<polyline fill="none" stroke="black" points="421,-599.5 421,-413.5 "/>
<path fill="none" stroke="black" d="M421,-413.5C421,-407.5 427,-401.5 433,-401.5"/>
<text text-anchor="middle" x="499" y="-594.9" font-family="Times Roman,serif" font-size="14.00">TextBlastsController</text>
<polyline fill="none" stroke="black" points="421,-585.5 577,-585.5 "/>
<text text-anchor="start" x="429" y="-568.9" font-family="Times Roman,serif" font-size="14.00">create</text>
<text text-anchor="start" x="429" y="-550.9" font-family="Times Roman,serif" font-size="14.00">destroy</text>
<text text-anchor="start" x="429" y="-532.9" font-family="Times Roman,serif" font-size="14.00">edit</text>
<text text-anchor="start" x="429" y="-514.9" font-family="Times Roman,serif" font-size="14.00">index</text>
<text text-anchor="start" x="429" y="-496.9" font-family="Times Roman,serif" font-size="14.00">new</text>
<text text-anchor="start" x="429" y="-478.9" font-family="Times Roman,serif" font-size="14.00">show</text>
<text text-anchor="start" x="429" y="-460.9" font-family="Times Roman,serif" font-size="14.00">update</text>
<polyline fill="none" stroke="black" points="421,-451.5 577,-451.5 "/>
<polyline fill="none" stroke="black" points="421,-427.5 577,-427.5 "/>
<text text-anchor="start" x="429" y="-410.9" font-family="Times Roman,serif" font-size="14.00">_layout</text>
</g>
<!-- VenuesController -->
<g id="node8" class="node"><title>VenuesController</title>
<polyline fill="none" stroke="black" points="13,-261.5 125,-261.5 "/>
<path fill="none" stroke="black" d="M125,-261.5C131,-261.5 137,-267.5 137,-273.5"/>
<polyline fill="none" stroke="black" points="137,-273.5 137,-459.5 "/>
<path fill="none" stroke="black" d="M137,-459.5C137,-465.5 131,-471.5 125,-471.5"/>
<polyline fill="none" stroke="black" points="125,-471.5 13,-471.5 "/>
<path fill="none" stroke="black" d="M13,-471.5C7,-471.5 1,-465.5 1,-459.5"/>
<polyline fill="none" stroke="black" points="1,-459.5 1,-273.5 "/>
<path fill="none" stroke="black" d="M1,-273.5C1,-267.5 7,-261.5 13,-261.5"/>
<text text-anchor="middle" x="69" y="-454.9" font-family="Times Roman,serif" font-size="14.00">VenuesController</text>
<polyline fill="none" stroke="black" points="1,-445.5 137,-445.5 "/>
<text text-anchor="start" x="9" y="-428.9" font-family="Times Roman,serif" font-size="14.00">create</text>
<text text-anchor="start" x="9" y="-410.9" font-family="Times Roman,serif" font-size="14.00">destroy</text>
<text text-anchor="start" x="9" y="-392.9" font-family="Times Roman,serif" font-size="14.00">edit</text>
<text text-anchor="start" x="9" y="-374.9" font-family="Times Roman,serif" font-size="14.00">index</text>
<text text-anchor="start" x="9" y="-356.9" font-family="Times Roman,serif" font-size="14.00">new</text>
<text text-anchor="start" x="9" y="-338.9" font-family="Times Roman,serif" font-size="14.00">show</text>
<text text-anchor="start" x="9" y="-320.9" font-family="Times Roman,serif" font-size="14.00">update</text>
<polyline fill="none" stroke="black" points="1,-311.5 137,-311.5 "/>
<polyline fill="none" stroke="black" points="1,-287.5 137,-287.5 "/>
<text text-anchor="start" x="9" y="-270.9" font-family="Times Roman,serif" font-size="14.00">_layout</text>
</g>
<!-- PagesController -->
<g id="node9" class="node"><title>PagesController</title>
<polyline fill="none" stroke="black" points="633,-401.5 734,-401.5 "/>
<path fill="none" stroke="black" d="M734,-401.5C740,-401.5 746,-407.5 746,-413.5"/>
<polyline fill="none" stroke="black" points="746,-413.5 746,-491.5 "/>
<path fill="none" stroke="black" d="M746,-491.5C746,-497.5 740,-503.5 734,-503.5"/>
<polyline fill="none" stroke="black" points="734,-503.5 633,-503.5 "/>
<path fill="none" stroke="black" d="M633,-503.5C627,-503.5 621,-497.5 621,-491.5"/>
<polyline fill="none" stroke="black" points="621,-491.5 621,-413.5 "/>
<path fill="none" stroke="black" d="M621,-413.5C621,-407.5 627,-401.5 633,-401.5"/>
<text text-anchor="middle" x="683.5" y="-486.9" font-family="Times Roman,serif" font-size="14.00">PagesController</text>
<polyline fill="none" stroke="black" points="621,-477.5 746,-477.5 "/>
<text text-anchor="start" x="629" y="-460.9" font-family="Times Roman,serif" font-size="14.00">index</text>
<polyline fill="none" stroke="black" points="621,-451.5 746,-451.5 "/>
<polyline fill="none" stroke="black" points="621,-427.5 746,-427.5 "/>
<text text-anchor="start" x="629" y="-410.9" font-family="Times Roman,serif" font-size="14.00">_layout</text>
</g>
<!-- EventsController -->
<g id="node10" class="node"><title>EventsController</title>
<polyline fill="none" stroke="black" points="593,-161.5 702,-161.5 "/>
<path fill="none" stroke="black" d="M702,-161.5C708,-161.5 714,-167.5 714,-173.5"/>
<polyline fill="none" stroke="black" points="714,-173.5 714,-359.5 "/>
<path fill="none" stroke="black" d="M714,-359.5C714,-365.5 708,-371.5 702,-371.5"/>
<polyline fill="none" stroke="black" points="702,-371.5 593,-371.5 "/>
<path fill="none" stroke="black" d="M593,-371.5C587,-371.5 581,-365.5 581,-359.5"/>
<polyline fill="none" stroke="black" points="581,-359.5 581,-173.5 "/>
<path fill="none" stroke="black" d="M581,-173.5C581,-167.5 587,-161.5 593,-161.5"/>
<text text-anchor="middle" x="647.5" y="-354.9" font-family="Times Roman,serif" font-size="14.00">EventsController</text>
<polyline fill="none" stroke="black" points="581,-345.5 714,-345.5 "/>
<text text-anchor="start" x="589" y="-328.9" font-family="Times Roman,serif" font-size="14.00">create</text>
<text text-anchor="start" x="589" y="-310.9" font-family="Times Roman,serif" font-size="14.00">destroy</text>
<text text-anchor="start" x="589" y="-292.9" font-family="Times Roman,serif" font-size="14.00">edit</text>
<text text-anchor="start" x="589" y="-274.9" font-family="Times Roman,serif" font-size="14.00">index</text>
<text text-anchor="start" x="589" y="-256.9" font-family="Times Roman,serif" font-size="14.00">new</text>
<text text-anchor="start" x="589" y="-238.9" font-family="Times Roman,serif" font-size="14.00">show</text>
<text text-anchor="start" x="589" y="-220.9" font-family="Times Roman,serif" font-size="14.00">update</text>
<polyline fill="none" stroke="black" points="581,-211.5 714,-211.5 "/>
<polyline fill="none" stroke="black" points="581,-187.5 714,-187.5 "/>
<text text-anchor="start" x="589" y="-170.9" font-family="Times Roman,serif" font-size="14.00">_layout</text>
</g>
</g>
</svg>
