<?xml version="1.0" encoding="UTF-8" standalone="no"?>
<!DOCTYPE svg PUBLIC "-//W3C//DTD SVG 1.1//EN"
 "http://www.w3.org/Graphics/SVG/1.1/DTD/svg11.dtd">
<!-- Generated by graphviz version 2.26.3 (20100126.1600)
 -->
<!-- Title: models_diagram Pages: 1 -->
<svg width="566pt" height="324pt"
 viewBox="0.00 0.00 566.00 324.00" xmlns="http://www.w3.org/2000/svg" xmlns:xlink="http://www.w3.org/1999/xlink">
<g id="graph1" class="graph" transform="scale(1 1) rotate(0) translate(4 320)">
<title>models_diagram</title>
<polygon fill="white" stroke="white" points="-4,5 -4,-320 563,-320 563,5 -4,5"/>
<!-- _diagram_info -->
<g id="node1" class="node"><title>_diagram_info</title>
<text text-anchor="start" x="8" y="-299.8" font-family="Times Roman,serif" font-size="13.00">Models diagram</text>
<text text-anchor="start" x="8" y="-282.8" font-family="Times Roman,serif" font-size="13.00">Date: Aug 27 2012 &#45; 20:19</text>
<text text-anchor="start" x="8" y="-265.8" font-family="Times Roman,serif" font-size="13.00">Migration version: 20120828001231</text>
<text text-anchor="start" x="8" y="-248.8" font-family="Times Roman,serif" font-size="13.00">Generated by RailRoady 1.0.8</text>
<text text-anchor="start" x="8" y="-231.8" font-family="Times Roman,serif" font-size="13.00">http://railroady.prestonlee.com</text>
</g>
<!-- Recipient -->
<g id="node2" class="node"><title>Recipient</title>
<ellipse fill="none" stroke="black" cx="128" cy="-167" rx="56.0679" ry="18.3848"/>
<text text-anchor="middle" x="128" y="-163.4" font-family="Times Roman,serif" font-size="14.00">Recipient</text>
</g>
<!-- Group -->
<g id="node8" class="node"><title>Group</title>
<ellipse fill="none" stroke="black" cx="132" cy="-93" rx="41.2167" ry="18.3848"/>
<text text-anchor="middle" x="132" y="-89.4" font-family="Times Roman,serif" font-size="14.00">Group</text>
</g>
<!-- Recipient&#45;&gt;Group -->
<g id="edge2" class="edge"><title>Recipient&#45;&gt;Group</title>
<path fill="none" stroke="#316c7b" d="M129.552,-138.282C129.847,-132.836 130.155,-127.138 130.449,-121.693"/>
<polygon fill="#316c7b" stroke="#316c7b" points="129.549,-138.341 124.516,-148.084 129.279,-143.334 129.009,-148.327 129.009,-148.327 129.009,-148.327 129.279,-143.334 133.503,-148.57 129.549,-138.341 129.549,-138.341"/>
<polygon fill="#316c7b" stroke="#316c7b" points="130.451,-121.653 135.484,-111.91 130.721,-116.66 130.991,-111.667 130.991,-111.667 130.991,-111.667 130.721,-116.66 126.498,-111.424 130.451,-121.653 130.451,-121.653"/>
</g>
<!-- Event -->
<g id="node3" class="node"><title>Event</title>
<ellipse fill="none" stroke="black" cx="242" cy="-167" rx="39.8075" ry="18.3848"/>
<text text-anchor="middle" x="242" y="-163.4" font-family="Times Roman,serif" font-size="14.00">Event</text>
</g>
<!-- Event&#45;&gt;Group -->
<g id="edge4" class="edge"><title>Event&#45;&gt;Group</title>
<path fill="none" stroke="#4b3bdb" d="M212.322,-147.035C197.304,-136.932 179.064,-124.661 163.764,-114.368"/>
<ellipse fill="none" stroke="#4b3bdb" cx="215.889" cy="-149.434" rx="4.00002" ry="4.00002"/>
<polygon fill="#4b3bdb" stroke="#4b3bdb" points="163.439,-114.15 157.653,-104.834 159.29,-111.359 155.141,-108.568 155.141,-108.568 155.141,-108.568 159.29,-111.359 152.63,-112.302 163.439,-114.15 163.439,-114.15"/>
</g>
<!-- Setting -->
<g id="node9" class="node"><title>Setting</title>
<ellipse fill="none" stroke="black" cx="240" cy="-93" rx="46.8775" ry="18.3848"/>
<text text-anchor="middle" x="240" y="-89.4" font-family="Times Roman,serif" font-size="14.00">Setting</text>
</g>
<!-- Event&#45;&gt;Setting -->
<g id="edge8" class="edge"><title>Event&#45;&gt;Setting</title>
<path fill="none" stroke="#fd52c6" d="M241.279,-140.309C241.098,-133.635 240.905,-126.476 240.724,-119.797"/>
<ellipse fill="none" stroke="#fd52c6" cx="241.387" cy="-144.328" rx="4" ry="4"/>
<ellipse fill="#fd52c6" stroke="#fd52c6" cx="240.613" cy="-115.666" rx="4" ry="4"/>
</g>
<!-- Venue -->
<g id="node10" class="node"><title>Venue</title>
<ellipse fill="none" stroke="black" cx="347" cy="-93" rx="41.9273" ry="18.3848"/>
<text text-anchor="middle" x="347" y="-89.4" font-family="Times Roman,serif" font-size="14.00">Venue</text>
</g>
<!-- Event&#45;&gt;Venue -->
<g id="edge6" class="edge"><title>Event&#45;&gt;Venue</title>
<path fill="none" stroke="#fd6153" d="M270.994,-146.566C285.557,-136.303 303.161,-123.896 317.758,-113.609"/>
<ellipse fill="none" stroke="#fd6153" cx="267.281" cy="-149.183" rx="4.00002" ry="4.00002"/>
<ellipse fill="#fd6153" stroke="#fd6153" cx="321.386" cy="-111.052" rx="4.00002" ry="4.00002"/>
</g>
<!-- TextBlast -->
<g id="node4" class="node"><title>TextBlast</title>
<ellipse fill="none" stroke="black" cx="64" cy="-19" rx="56.0679" ry="18.3848"/>
<text text-anchor="middle" x="64" y="-15.4" font-family="Times Roman,serif" font-size="14.00">TextBlast</text>
</g>
<!-- User -->
<g id="node5" class="node"><title>User</title>
<ellipse fill="none" stroke="black" cx="302" cy="-269" rx="33.9411" ry="18.3848"/>
<text text-anchor="middle" x="302" y="-265.4" font-family="Times Roman,serif" font-size="14.00">User</text>
</g>
<!-- User&#45;&gt;Event -->
<g id="edge12" class="edge"><title>User&#45;&gt;Event</title>
<path fill="none" stroke="#9bbbce" d="M287.467,-244.294C278.45,-228.966 266.868,-209.275 257.65,-193.604"/>
<ellipse fill="none" stroke="#9bbbce" cx="289.521" cy="-247.785" rx="4.00002" ry="4.00002"/>
<polygon fill="#9bbbce" stroke="#9bbbce" points="257.603,-193.525 256.411,-182.624 255.068,-189.215 252.533,-184.906 252.533,-184.906 252.533,-184.906 255.068,-189.215 248.654,-187.187 257.603,-193.525 257.603,-193.525"/>
</g>
<!-- Auth -->
<g id="node7" class="node"><title>Auth</title>
<ellipse fill="none" stroke="black" cx="335" cy="-167" rx="34.8574" ry="18.3848"/>
<text text-anchor="middle" x="335" y="-163.4" font-family="Times Roman,serif" font-size="14.00">Auth</text>
</g>
<!-- User&#45;&gt;Auth -->
<g id="edge10" class="edge"><title>User&#45;&gt;Auth</title>
<path fill="none" stroke="#a68420" d="M310.433,-242.934C315.16,-228.322 321.06,-210.088 325.892,-195.151"/>
<ellipse fill="none" stroke="#a68420" cx="309.131" cy="-246.959" rx="4.00001" ry="4.00001"/>
<polygon fill="#a68420" stroke="#a68420" points="325.962,-194.936 333.322,-186.807 327.501,-190.179 329.04,-185.422 329.04,-185.422 329.04,-185.422 327.501,-190.179 324.759,-184.036 325.962,-194.936 325.962,-194.936"/>
</g>
<!-- Notifier -->
<g id="node6" class="node"><title>Notifier</title>
<polygon fill="none" stroke="black" points="490,-185 422,-185 422,-149 490,-149 490,-185"/>
<text text-anchor="middle" x="456" y="-163.4" font-family="Times Roman,serif" font-size="14.00">Notifier</text>
</g>
<!-- Group&#45;&gt;TextBlast -->
<g id="edge16" class="edge"><title>Group&#45;&gt;TextBlast</title>
<path fill="none" stroke="#16c186" d="M110.689,-69.8082C103.277,-61.7421 94.9252,-52.6539 87.3565,-44.4174"/>
<ellipse fill="none" stroke="#16c186" cx="113.522" cy="-72.8916" rx="4.00002" ry="4.00002"/>
<polygon fill="#16c186" stroke="#16c186" points="87.1622,-44.2059 83.7094,-33.7978 83.779,-40.5242 80.3959,-36.8426 80.3959,-36.8426 80.3959,-36.8426 83.779,-40.5242 77.0824,-39.8874 87.1622,-44.2059 87.1622,-44.2059"/>
</g>
<!-- EmailBlast -->
<g id="node11" class="node"><title>EmailBlast</title>
<ellipse fill="none" stroke="black" cx="201" cy="-19" rx="62.9325" ry="18.3848"/>
<text text-anchor="middle" x="201" y="-15.4" font-family="Times Roman,serif" font-size="14.00">EmailBlast</text>
</g>
<!-- Group&#45;&gt;EmailBlast -->
<g id="edge18" class="edge"><title>Group&#45;&gt;EmailBlast</title>
<path fill="none" stroke="#28edef" d="M153.582,-69.8539C161.045,-61.8506 169.45,-52.8364 177.088,-44.6446"/>
<ellipse fill="none" stroke="#28edef" cx="150.731" cy="-72.9114" rx="4.00002" ry="4.00002"/>
<polygon fill="#28edef" stroke="#28edef" points="177.301,-44.4163 187.412,-40.1713 180.711,-40.7594 184.121,-37.1024 184.121,-37.1024 184.121,-37.1024 180.711,-40.7594 180.829,-34.0336 177.301,-44.4163 177.301,-44.4163"/>
</g>
<!-- ActionMailer::Base -->
<g id="node18" class="node"><title>ActionMailer::Base</title>
<ellipse fill="none" stroke="black" cx="456" cy="-269" rx="101.823" ry="18.3848"/>
<text text-anchor="middle" x="456" y="-265.4" font-family="Times Roman,serif" font-size="14.00">ActionMailer::Base</text>
</g>
<!-- ActionMailer::Base&#45;&gt;Notifier -->
<g id="edge14" class="edge"><title>ActionMailer::Base&#45;&gt;Notifier</title>
<path fill="none" stroke="black" d="M456,-250.292C456,-231.773 456,-203.603 456,-185.247"/>
</g>
</g>
</svg>
