<?xml version="1.0" encoding="UTF-8" standalone="no"?>
<!DOCTYPE svg PUBLIC "-//W3C//DTD SVG 1.1//EN"
 "http://www.w3.org/Graphics/SVG/1.1/DTD/svg11.dtd">
<!-- Generated by graphviz version 2.26.3 (20100126.1600)
 -->
<!-- Title: models_diagram Pages: 1 -->
<svg width="984pt" height="250pt"
 viewBox="0.00 0.00 984.00 250.00" xmlns="http://www.w3.org/2000/svg" xmlns:xlink="http://www.w3.org/1999/xlink">
<g id="graph1" class="graph" transform="scale(1 1) rotate(0) translate(4 246)">
<title>models_diagram</title>
<polygon fill="white" stroke="white" points="-4,5 -4,-246 981,-246 981,5 -4,5"/>
<!-- _diagram_info -->
<g id="node1" class="node"><title>_diagram_info</title>
<text text-anchor="start" x="8" y="-225.8" font-family="Times Roman,serif" font-size="13.00">Models diagram</text>
<text text-anchor="start" x="8" y="-208.8" font-family="Times Roman,serif" font-size="13.00">Date: Aug 27 2012 &#45; 18:23</text>
<text text-anchor="start" x="8" y="-191.8" font-family="Times Roman,serif" font-size="13.00">Migration version: 20120827221344</text>
<text text-anchor="start" x="8" y="-174.8" font-family="Times Roman,serif" font-size="13.00">Generated by RailRoady 1.0.8</text>
<text text-anchor="start" x="8" y="-157.8" font-family="Times Roman,serif" font-size="13.00">http://railroady.prestonlee.com</text>
</g>
<!-- Recipient -->
<g id="node2" class="node"><title>Recipient</title>
<ellipse fill="none" stroke="black" cx="324" cy="-195" rx="56.0679" ry="18.3848"/>
<text text-anchor="middle" x="324" y="-191.4" font-family="Times Roman,serif" font-size="14.00">Recipient</text>
</g>
<!-- Event -->
<g id="node3" class="node"><title>Event</title>
<ellipse fill="none" stroke="black" cx="438" cy="-195" rx="39.8075" ry="18.3848"/>
<text text-anchor="middle" x="438" y="-191.4" font-family="Times Roman,serif" font-size="14.00">Event</text>
</g>
<!-- Group -->
<g id="node8" class="node"><title>Group</title>
<ellipse fill="none" stroke="black" cx="438" cy="-93" rx="41.2167" ry="18.3848"/>
<text text-anchor="middle" x="438" y="-89.4" font-family="Times Roman,serif" font-size="14.00">Group</text>
</g>
<!-- Event&#45;&gt;Group -->
<g id="edge2" class="edge"><title>Event&#45;&gt;Group</title>
<path fill="none" stroke="#e11362" d="M438,-168.015C438,-153.835 438,-136.445 438,-121.98"/>
<ellipse fill="none" stroke="#e11362" cx="438" cy="-172.292" rx="4" ry="4"/>
<polygon fill="#e11362" stroke="#e11362" points="438,-121.59 442.5,-111.59 438,-116.59 438,-111.59 438,-111.59 438,-111.59 438,-116.59 433.5,-111.59 438,-121.59 438,-121.59"/>
</g>
<!-- TextBlast -->
<g id="node4" class="node"><title>TextBlast</title>
<ellipse fill="none" stroke="black" cx="370" cy="-19" rx="56.0679" ry="18.3848"/>
<text text-anchor="middle" x="370" y="-15.4" font-family="Times Roman,serif" font-size="14.00">TextBlast</text>
</g>
<!-- User -->
<g id="node5" class="node"><title>User</title>
<ellipse fill="none" stroke="black" cx="530" cy="-195" rx="33.9411" ry="18.3848"/>
<text text-anchor="middle" x="530" y="-191.4" font-family="Times Roman,serif" font-size="14.00">User</text>
</g>
<!-- Notifier -->
<g id="node6" class="node"><title>Notifier</title>
<polygon fill="none" stroke="black" points="718,-111 650,-111 650,-75 718,-75 718,-111"/>
<text text-anchor="middle" x="684" y="-89.4" font-family="Times Roman,serif" font-size="14.00">Notifier</text>
</g>
<!-- Auth -->
<g id="node7" class="node"><title>Auth</title>
<ellipse fill="none" stroke="black" cx="839" cy="-195" rx="34.8574" ry="18.3848"/>
<text text-anchor="middle" x="839" y="-191.4" font-family="Times Roman,serif" font-size="14.00">Auth</text>
</g>
<!-- Group&#45;&gt;TextBlast -->
<g id="edge6" class="edge"><title>Group&#45;&gt;TextBlast</title>
<path fill="none" stroke="#77ed5e" d="M416.689,-69.8082C409.277,-61.7421 400.925,-52.6539 393.356,-44.4174"/>
<ellipse fill="none" stroke="#77ed5e" cx="419.522" cy="-72.8916" rx="4.00002" ry="4.00002"/>
<polygon fill="#77ed5e" stroke="#77ed5e" points="393.162,-44.2059 389.709,-33.7978 389.779,-40.5242 386.396,-36.8426 386.396,-36.8426 386.396,-36.8426 389.779,-40.5242 383.082,-39.8874 393.162,-44.2059 393.162,-44.2059"/>
</g>
<!-- EmailBlast -->
<g id="node10" class="node"><title>EmailBlast</title>
<ellipse fill="none" stroke="black" cx="507" cy="-19" rx="62.9325" ry="18.3848"/>
<text text-anchor="middle" x="507" y="-15.4" font-family="Times Roman,serif" font-size="14.00">EmailBlast</text>
</g>
<!-- Group&#45;&gt;EmailBlast -->
<g id="edge8" class="edge"><title>Group&#45;&gt;EmailBlast</title>
<path fill="none" stroke="#473c95" d="M459.582,-69.8539C467.045,-61.8506 475.45,-52.8364 483.088,-44.6446"/>
<ellipse fill="none" stroke="#473c95" cx="456.731" cy="-72.9114" rx="4.00002" ry="4.00002"/>
<polygon fill="#473c95" stroke="#473c95" points="483.301,-44.4163 493.412,-40.1713 486.711,-40.7594 490.121,-37.1024 490.121,-37.1024 490.121,-37.1024 486.711,-40.7594 486.829,-34.0336 483.301,-44.4163 483.301,-44.4163"/>
</g>
<!-- Venue -->
<g id="node9" class="node"><title>Venue</title>
<ellipse fill="none" stroke="black" cx="934" cy="-195" rx="41.9273" ry="18.3848"/>
<text text-anchor="middle" x="934" y="-191.4" font-family="Times Roman,serif" font-size="14.00">Venue</text>
</g>
<!-- ActionMailer::Base -->
<g id="node12" class="node"><title>ActionMailer::Base</title>
<ellipse fill="none" stroke="black" cx="684" cy="-195" rx="101.823" ry="18.3848"/>
<text text-anchor="middle" x="684" y="-191.4" font-family="Times Roman,serif" font-size="14.00">ActionMailer::Base</text>
</g>
<!-- ActionMailer::Base&#45;&gt;Notifier -->
<g id="edge4" class="edge"><title>ActionMailer::Base&#45;&gt;Notifier</title>
<path fill="none" stroke="black" d="M684,-176.292C684,-157.773 684,-129.603 684,-111.247"/>
</g>
</g>
</svg>
