<?xml version="1.0" encoding="UTF-8" standalone="no"?>
<!DOCTYPE svg PUBLIC "-//W3C//DTD SVG 1.1//EN"
 "http://www.w3.org/Graphics/SVG/1.1/DTD/svg11.dtd">
<!-- Generated by graphviz version 2.26.3 (20100126.1600)
 -->
<!-- Title: models_diagram Pages: 1 -->
<svg width="1480pt" height="782pt"
 viewBox="0.00 0.00 1480.00 782.00" xmlns="http://www.w3.org/2000/svg" xmlns:xlink="http://www.w3.org/1999/xlink">
<g id="graph1" class="graph" transform="scale(1 1) rotate(0) translate(4 778)">
<title>models_diagram</title>
<polygon fill="white" stroke="white" points="-4,5 -4,-778 1477,-778 1477,5 -4,5"/>
<!-- _diagram_info -->
<g id="node1" class="node"><title>_diagram_info</title>
<text text-anchor="start" x="8" y="-597.8" font-family="Times Roman,serif" font-size="13.00">Models diagram</text>
<text text-anchor="start" x="8" y="-580.8" font-family="Times Roman,serif" font-size="13.00">Date: Aug 27 2012 &#45; 18:23</text>
<text text-anchor="start" x="8" y="-563.8" font-family="Times Roman,serif" font-size="13.00">Migration version: 20120827221344</text>
<text text-anchor="start" x="8" y="-546.8" font-family="Times Roman,serif" font-size="13.00">Generated by RailRoady 1.0.8</text>
<text text-anchor="start" x="8" y="-529.8" font-family="Times Roman,serif" font-size="13.00">http://railroady.prestonlee.com</text>
</g>
<!-- Recipient -->
<g id="node2" class="node"><title>Recipient</title>
<polyline fill="none" stroke="black" points="279.5,-478 420.5,-478 "/>
<path fill="none" stroke="black" d="M420.5,-478C426.5,-478 432.5,-484 432.5,-490"/>
<polyline fill="none" stroke="black" points="432.5,-490 432.5,-644 "/>
<path fill="none" stroke="black" d="M432.5,-644C432.5,-650 426.5,-656 420.5,-656"/>
<polyline fill="none" stroke="black" points="420.5,-656 279.5,-656 "/>
<path fill="none" stroke="black" d="M279.5,-656C273.5,-656 267.5,-650 267.5,-644"/>
<polyline fill="none" stroke="black" points="267.5,-644 267.5,-490 "/>
<path fill="none" stroke="black" d="M267.5,-490C267.5,-484 273.5,-478 279.5,-478"/>
<text text-anchor="middle" x="350" y="-639.4" font-family="Times Roman,serif" font-size="14.00">Recipient</text>
<polyline fill="none" stroke="black" points="267.5,-630 432.5,-630 "/>
<text text-anchor="start" x="275.5" y="-613.4" font-family="Times Roman,serif" font-size="14.00">id :integer</text>
<text text-anchor="start" x="275.5" y="-595.4" font-family="Times Roman,serif" font-size="14.00">name :string</text>
<text text-anchor="start" x="275.5" y="-577.4" font-family="Times Roman,serif" font-size="14.00">email :string</text>
<text text-anchor="start" x="275.5" y="-559.4" font-family="Times Roman,serif" font-size="14.00">phone :string</text>
<text text-anchor="start" x="275.5" y="-541.4" font-family="Times Roman,serif" font-size="14.00">facebook_id :string</text>
<text text-anchor="start" x="275.5" y="-523.4" font-family="Times Roman,serif" font-size="14.00">rsvp :string</text>
<text text-anchor="start" x="275.5" y="-505.4" font-family="Times Roman,serif" font-size="14.00">created_at :datetime</text>
<text text-anchor="start" x="275.5" y="-487.4" font-family="Times Roman,serif" font-size="14.00">updated_at :datetime</text>
</g>
<!-- Event -->
<g id="node3" class="node"><title>Event</title>
<polyline fill="none" stroke="black" points="461.5,-487 602.5,-487 "/>
<path fill="none" stroke="black" d="M602.5,-487C608.5,-487 614.5,-493 614.5,-499"/>
<polyline fill="none" stroke="black" points="614.5,-499 614.5,-635 "/>
<path fill="none" stroke="black" d="M614.5,-635C614.5,-641 608.5,-647 602.5,-647"/>
<polyline fill="none" stroke="black" points="602.5,-647 461.5,-647 "/>
<path fill="none" stroke="black" d="M461.5,-647C455.5,-647 449.5,-641 449.5,-635"/>
<polyline fill="none" stroke="black" points="449.5,-635 449.5,-499 "/>
<path fill="none" stroke="black" d="M449.5,-499C449.5,-493 455.5,-487 461.5,-487"/>
<text text-anchor="middle" x="532" y="-630.4" font-family="Times Roman,serif" font-size="14.00">Event</text>
<polyline fill="none" stroke="black" points="449.5,-621 614.5,-621 "/>
<text text-anchor="start" x="457.5" y="-604.4" font-family="Times Roman,serif" font-size="14.00">id :integer</text>
<text text-anchor="start" x="457.5" y="-586.4" font-family="Times Roman,serif" font-size="14.00">name :string</text>
<text text-anchor="start" x="457.5" y="-568.4" font-family="Times Roman,serif" font-size="14.00">desc :string</text>
<text text-anchor="start" x="457.5" y="-550.4" font-family="Times Roman,serif" font-size="14.00">start_time :datetime</text>
<text text-anchor="start" x="457.5" y="-532.4" font-family="Times Roman,serif" font-size="14.00">end_time :datetime</text>
<text text-anchor="start" x="457.5" y="-514.4" font-family="Times Roman,serif" font-size="14.00">created_at :datetime</text>
<text text-anchor="start" x="457.5" y="-496.4" font-family="Times Roman,serif" font-size="14.00">updated_at :datetime</text>
</g>
<!-- Group -->
<g id="node8" class="node"><title>Group</title>
<polyline fill="none" stroke="black" points="461.5,-199 602.5,-199 "/>
<path fill="none" stroke="black" d="M602.5,-199C608.5,-199 614.5,-205 614.5,-211"/>
<polyline fill="none" stroke="black" points="614.5,-211 614.5,-311 "/>
<path fill="none" stroke="black" d="M614.5,-311C614.5,-317 608.5,-323 602.5,-323"/>
<polyline fill="none" stroke="black" points="602.5,-323 461.5,-323 "/>
<path fill="none" stroke="black" d="M461.5,-323C455.5,-323 449.5,-317 449.5,-311"/>
<polyline fill="none" stroke="black" points="449.5,-311 449.5,-211 "/>
<path fill="none" stroke="black" d="M449.5,-211C449.5,-205 455.5,-199 461.5,-199"/>
<text text-anchor="middle" x="532" y="-306.4" font-family="Times Roman,serif" font-size="14.00">Group</text>
<polyline fill="none" stroke="black" points="449.5,-297 614.5,-297 "/>
<text text-anchor="start" x="457.5" y="-280.4" font-family="Times Roman,serif" font-size="14.00">id :integer</text>
<text text-anchor="start" x="457.5" y="-262.4" font-family="Times Roman,serif" font-size="14.00">name :string</text>
<text text-anchor="start" x="457.5" y="-244.4" font-family="Times Roman,serif" font-size="14.00">created_at :datetime</text>
<text text-anchor="start" x="457.5" y="-226.4" font-family="Times Roman,serif" font-size="14.00">updated_at :datetime</text>
<text text-anchor="start" x="457.5" y="-208.4" font-family="Times Roman,serif" font-size="14.00">event_id :integer</text>
</g>
<!-- Event&#45;&gt;Group -->
<g id="edge2" class="edge"><title>Event&#45;&gt;Group</title>
<path fill="none" stroke="#7bc767" d="M532,-478.422C532,-432.481 532,-377.059 532,-333.67"/>
<ellipse fill="none" stroke="#7bc767" cx="532" cy="-482.602" rx="4" ry="4"/>
<polygon fill="#7bc767" stroke="#7bc767" points="532,-333.477 536.5,-323.477 532,-328.477 532,-323.477 532,-323.477 532,-323.477 532,-328.477 527.5,-323.477 532,-333.477 532,-333.477"/>
</g>
<!-- TextBlast -->
<g id="node4" class="node"><title>TextBlast</title>
<polyline fill="none" stroke="black" points="370.5,-1 511.5,-1 "/>
<path fill="none" stroke="black" d="M511.5,-1C517.5,-1 523.5,-7 523.5,-13"/>
<polyline fill="none" stroke="black" points="523.5,-13 523.5,-149 "/>
<path fill="none" stroke="black" d="M523.5,-149C523.5,-155 517.5,-161 511.5,-161"/>
<polyline fill="none" stroke="black" points="511.5,-161 370.5,-161 "/>
<path fill="none" stroke="black" d="M370.5,-161C364.5,-161 358.5,-155 358.5,-149"/>
<polyline fill="none" stroke="black" points="358.5,-149 358.5,-13 "/>
<path fill="none" stroke="black" d="M358.5,-13C358.5,-7 364.5,-1 370.5,-1"/>
<text text-anchor="middle" x="441" y="-144.4" font-family="Times Roman,serif" font-size="14.00">TextBlast</text>
<polyline fill="none" stroke="black" points="358.5,-135 523.5,-135 "/>
<text text-anchor="start" x="366.5" y="-118.4" font-family="Times Roman,serif" font-size="14.00">id :integer</text>
<text text-anchor="start" x="366.5" y="-100.4" font-family="Times Roman,serif" font-size="14.00">done :boolean</text>
<text text-anchor="start" x="366.5" y="-82.4" font-family="Times Roman,serif" font-size="14.00">contents :string</text>
<text text-anchor="start" x="366.5" y="-64.4" font-family="Times Roman,serif" font-size="14.00">schedule :datetime</text>
<text text-anchor="start" x="366.5" y="-46.4" font-family="Times Roman,serif" font-size="14.00">created_at :datetime</text>
<text text-anchor="start" x="366.5" y="-28.4" font-family="Times Roman,serif" font-size="14.00">updated_at :datetime</text>
<text text-anchor="start" x="366.5" y="-10.4" font-family="Times Roman,serif" font-size="14.00">group_id :integer</text>
</g>
<!-- User -->
<g id="node5" class="node"><title>User</title>
<polyline fill="none" stroke="black" points="644,-361 874,-361 "/>
<path fill="none" stroke="black" d="M874,-361C880,-361 886,-367 886,-373"/>
<polyline fill="none" stroke="black" points="886,-373 886,-761 "/>
<path fill="none" stroke="black" d="M886,-761C886,-767 880,-773 874,-773"/>
<polyline fill="none" stroke="black" points="874,-773 644,-773 "/>
<path fill="none" stroke="black" d="M644,-773C638,-773 632,-767 632,-761"/>
<polyline fill="none" stroke="black" points="632,-761 632,-373 "/>
<path fill="none" stroke="black" d="M632,-373C632,-367 638,-361 644,-361"/>
<text text-anchor="middle" x="759" y="-756.4" font-family="Times Roman,serif" font-size="14.00">User</text>
<polyline fill="none" stroke="black" points="632,-747 886,-747 "/>
<text text-anchor="start" x="640" y="-730.4" font-family="Times Roman,serif" font-size="14.00">id :integer</text>
<text text-anchor="start" x="640" y="-712.4" font-family="Times Roman,serif" font-size="14.00">email :string</text>
<text text-anchor="start" x="640" y="-694.4" font-family="Times Roman,serif" font-size="14.00">encrypted_password :string</text>
<text text-anchor="start" x="640" y="-676.4" font-family="Times Roman,serif" font-size="14.00">reset_password_token :string</text>
<text text-anchor="start" x="640" y="-658.4" font-family="Times Roman,serif" font-size="14.00">reset_password_sent_at :datetime</text>
<text text-anchor="start" x="640" y="-640.4" font-family="Times Roman,serif" font-size="14.00">remember_created_at :datetime</text>
<text text-anchor="start" x="640" y="-622.4" font-family="Times Roman,serif" font-size="14.00">sign_in_count :integer</text>
<text text-anchor="start" x="640" y="-604.4" font-family="Times Roman,serif" font-size="14.00">current_sign_in_at :datetime</text>
<text text-anchor="start" x="640" y="-586.4" font-family="Times Roman,serif" font-size="14.00">last_sign_in_at :datetime</text>
<text text-anchor="start" x="640" y="-568.4" font-family="Times Roman,serif" font-size="14.00">current_sign_in_ip :string</text>
<text text-anchor="start" x="640" y="-550.4" font-family="Times Roman,serif" font-size="14.00">last_sign_in_ip :string</text>
<text text-anchor="start" x="640" y="-532.4" font-family="Times Roman,serif" font-size="14.00">confirmation_token :string</text>
<text text-anchor="start" x="640" y="-514.4" font-family="Times Roman,serif" font-size="14.00">confirmed_at :datetime</text>
<text text-anchor="start" x="640" y="-496.4" font-family="Times Roman,serif" font-size="14.00">confirmation_sent_at :datetime</text>
<text text-anchor="start" x="640" y="-478.4" font-family="Times Roman,serif" font-size="14.00">unconfirmed_email :string</text>
<text text-anchor="start" x="640" y="-460.4" font-family="Times Roman,serif" font-size="14.00">first_name :string</text>
<text text-anchor="start" x="640" y="-442.4" font-family="Times Roman,serif" font-size="14.00">last_name :string</text>
<text text-anchor="start" x="640" y="-424.4" font-family="Times Roman,serif" font-size="14.00">phone :string</text>
<text text-anchor="start" x="640" y="-406.4" font-family="Times Roman,serif" font-size="14.00">company :string</text>
<text text-anchor="start" x="640" y="-388.4" font-family="Times Roman,serif" font-size="14.00">created_at :datetime</text>
<text text-anchor="start" x="640" y="-370.4" font-family="Times Roman,serif" font-size="14.00">updated_at :datetime</text>
</g>
<!-- Notifier -->
<g id="node6" class="node"><title>Notifier</title>
<polygon fill="none" stroke="black" points="972,-235 972,-287 1040,-287 1040,-235 972,-235"/>
<text text-anchor="middle" x="1006" y="-270.4" font-family="Times Roman,serif" font-size="14.00">Notifier</text>
<polyline fill="none" stroke="black" points="972,-261 1040,-261 "/>
<text text-anchor="middle" x="1006" y="-244.4" font-family="Times Roman,serif" font-size="14.00"> </text>
</g>
<!-- Auth -->
<g id="node7" class="node"><title>Auth</title>
<polyline fill="none" stroke="black" points="1137.5,-496 1278.5,-496 "/>
<path fill="none" stroke="black" d="M1278.5,-496C1284.5,-496 1290.5,-502 1290.5,-508"/>
<polyline fill="none" stroke="black" points="1290.5,-508 1290.5,-626 "/>
<path fill="none" stroke="black" d="M1290.5,-626C1290.5,-632 1284.5,-638 1278.5,-638"/>
<polyline fill="none" stroke="black" points="1278.5,-638 1137.5,-638 "/>
<path fill="none" stroke="black" d="M1137.5,-638C1131.5,-638 1125.5,-632 1125.5,-626"/>
<polyline fill="none" stroke="black" points="1125.5,-626 1125.5,-508 "/>
<path fill="none" stroke="black" d="M1125.5,-508C1125.5,-502 1131.5,-496 1137.5,-496"/>
<text text-anchor="middle" x="1208" y="-621.4" font-family="Times Roman,serif" font-size="14.00">Auth</text>
<polyline fill="none" stroke="black" points="1125.5,-612 1290.5,-612 "/>
<text text-anchor="start" x="1133.5" y="-595.4" font-family="Times Roman,serif" font-size="14.00">id :integer</text>
<text text-anchor="start" x="1133.5" y="-577.4" font-family="Times Roman,serif" font-size="14.00">token :string</text>
<text text-anchor="start" x="1133.5" y="-559.4" font-family="Times Roman,serif" font-size="14.00">secret :string</text>
<text text-anchor="start" x="1133.5" y="-541.4" font-family="Times Roman,serif" font-size="14.00">provider :string</text>
<text text-anchor="start" x="1133.5" y="-523.4" font-family="Times Roman,serif" font-size="14.00">created_at :datetime</text>
<text text-anchor="start" x="1133.5" y="-505.4" font-family="Times Roman,serif" font-size="14.00">updated_at :datetime</text>
</g>
<!-- Group&#45;&gt;TextBlast -->
<g id="edge6" class="edge"><title>Group&#45;&gt;TextBlast</title>
<path fill="none" stroke="#13913d" d="M496.934,-191.639C493.403,-184.655 489.784,-177.495 486.167,-170.341"/>
<ellipse fill="none" stroke="#13913d" cx="498.751" cy="-195.232" rx="4.00002" ry="4.00002"/>
<polygon fill="#13913d" stroke="#13913d" points="486.106,-170.22 485.61,-159.265 483.85,-165.758 481.594,-161.295 481.594,-161.295 481.594,-161.295 483.85,-165.758 477.578,-163.326 486.106,-170.22 486.106,-170.22"/>
</g>
<!-- EmailBlast -->
<g id="node10" class="node"><title>EmailBlast</title>
<polyline fill="none" stroke="black" points="552.5,-1 693.5,-1 "/>
<path fill="none" stroke="black" d="M693.5,-1C699.5,-1 705.5,-7 705.5,-13"/>
<polyline fill="none" stroke="black" points="705.5,-13 705.5,-149 "/>
<path fill="none" stroke="black" d="M705.5,-149C705.5,-155 699.5,-161 693.5,-161"/>
<polyline fill="none" stroke="black" points="693.5,-161 552.5,-161 "/>
<path fill="none" stroke="black" d="M552.5,-161C546.5,-161 540.5,-155 540.5,-149"/>
<polyline fill="none" stroke="black" points="540.5,-149 540.5,-13 "/>
<path fill="none" stroke="black" d="M540.5,-13C540.5,-7 546.5,-1 552.5,-1"/>
<text text-anchor="middle" x="623" y="-144.4" font-family="Times Roman,serif" font-size="14.00">EmailBlast</text>
<polyline fill="none" stroke="black" points="540.5,-135 705.5,-135 "/>
<text text-anchor="start" x="548.5" y="-118.4" font-family="Times Roman,serif" font-size="14.00">id :integer</text>
<text text-anchor="start" x="548.5" y="-100.4" font-family="Times Roman,serif" font-size="14.00">done :boolean</text>
<text text-anchor="start" x="548.5" y="-82.4" font-family="Times Roman,serif" font-size="14.00">contents :string</text>
<text text-anchor="start" x="548.5" y="-64.4" font-family="Times Roman,serif" font-size="14.00">schedule :datetime</text>
<text text-anchor="start" x="548.5" y="-46.4" font-family="Times Roman,serif" font-size="14.00">created_at :datetime</text>
<text text-anchor="start" x="548.5" y="-28.4" font-family="Times Roman,serif" font-size="14.00">updated_at :datetime</text>
<text text-anchor="start" x="548.5" y="-10.4" font-family="Times Roman,serif" font-size="14.00">group_id :integer</text>
</g>
<!-- Group&#45;&gt;EmailBlast -->
<g id="edge8" class="edge"><title>Group&#45;&gt;EmailBlast</title>
<path fill="none" stroke="#cca3d2" d="M567.066,-191.639C570.597,-184.655 574.216,-177.495 577.833,-170.341"/>
<ellipse fill="none" stroke="#cca3d2" cx="565.249" cy="-195.232" rx="4.00002" ry="4.00002"/>
<polygon fill="#cca3d2" stroke="#cca3d2" points="577.894,-170.22 586.422,-163.326 580.15,-165.758 582.406,-161.295 582.406,-161.295 582.406,-161.295 580.15,-165.758 578.39,-159.265 577.894,-170.22 577.894,-170.22"/>
</g>
<!-- Venue -->
<g id="node9" class="node"><title>Venue</title>
<polyline fill="none" stroke="black" points="1319.5,-460 1460.5,-460 "/>
<path fill="none" stroke="black" d="M1460.5,-460C1466.5,-460 1472.5,-466 1472.5,-472"/>
<polyline fill="none" stroke="black" points="1472.5,-472 1472.5,-662 "/>
<path fill="none" stroke="black" d="M1472.5,-662C1472.5,-668 1466.5,-674 1460.5,-674"/>
<polyline fill="none" stroke="black" points="1460.5,-674 1319.5,-674 "/>
<path fill="none" stroke="black" d="M1319.5,-674C1313.5,-674 1307.5,-668 1307.5,-662"/>
<polyline fill="none" stroke="black" points="1307.5,-662 1307.5,-472 "/>
<path fill="none" stroke="black" d="M1307.5,-472C1307.5,-466 1313.5,-460 1319.5,-460"/>
<text text-anchor="middle" x="1390" y="-657.4" font-family="Times Roman,serif" font-size="14.00">Venue</text>
<polyline fill="none" stroke="black" points="1307.5,-648 1472.5,-648 "/>
<text text-anchor="start" x="1315.5" y="-631.4" font-family="Times Roman,serif" font-size="14.00">id :integer</text>
<text text-anchor="start" x="1315.5" y="-613.4" font-family="Times Roman,serif" font-size="14.00">street :string</text>
<text text-anchor="start" x="1315.5" y="-595.4" font-family="Times Roman,serif" font-size="14.00">street2 :string</text>
<text text-anchor="start" x="1315.5" y="-577.4" font-family="Times Roman,serif" font-size="14.00">city :string</text>
<text text-anchor="start" x="1315.5" y="-559.4" font-family="Times Roman,serif" font-size="14.00">state :string</text>
<text text-anchor="start" x="1315.5" y="-541.4" font-family="Times Roman,serif" font-size="14.00">zip :string</text>
<text text-anchor="start" x="1315.5" y="-523.4" font-family="Times Roman,serif" font-size="14.00">location :string</text>
<text text-anchor="start" x="1315.5" y="-505.4" font-family="Times Roman,serif" font-size="14.00">created_at :datetime</text>
<text text-anchor="start" x="1315.5" y="-487.4" font-family="Times Roman,serif" font-size="14.00">updated_at :datetime</text>
<text text-anchor="start" x="1315.5" y="-469.4" font-family="Times Roman,serif" font-size="14.00">event_id :integer</text>
</g>
<!-- ActionMailer::Base -->
<g id="node12" class="node"><title>ActionMailer::Base</title>
<ellipse fill="none" stroke="black" cx="1006" cy="-567" rx="101.823" ry="18.3848"/>
<text text-anchor="middle" x="1006" y="-563.4" font-family="Times Roman,serif" font-size="14.00">ActionMailer::Base</text>
</g>
<!-- ActionMailer::Base&#45;&gt;Notifier -->
<g id="edge4" class="edge"><title>ActionMailer::Base&#45;&gt;Notifier</title>
<path fill="none" stroke="black" d="M1006,-548.319C1006,-496.026 1006,-348.048 1006,-287.411"/>
</g>
</g>
</svg>
