<?xml version="1.0" encoding="UTF-8" standalone="no"?>
<!DOCTYPE svg PUBLIC "-//W3C//DTD SVG 1.1//EN"
 "http://www.w3.org/Graphics/SVG/1.1/DTD/svg11.dtd">
<!-- Generated by graphviz version 2.26.3 (20100126.1600)
 -->
<!-- Title: models_diagram Pages: 1 -->
<svg width="566pt" height="398pt"
 viewBox="0.00 0.00 566.00 398.00" xmlns="http://www.w3.org/2000/svg" xmlns:xlink="http://www.w3.org/1999/xlink">
<g id="graph1" class="graph" transform="scale(1 1) rotate(0) translate(4 394)">
<title>models_diagram</title>
<polygon fill="white" stroke="white" points="-4,5 -4,-394 563,-394 563,5 -4,5"/>
<!-- _diagram_info -->
<g id="node1" class="node"><title>_diagram_info</title>
<text text-anchor="start" x="8" y="-373.8" font-family="Times Roman,serif" font-size="13.00">Models diagram</text>
<text text-anchor="start" x="8" y="-356.8" font-family="Times Roman,serif" font-size="13.00">Date: Aug 28 2012 &#45; 00:21</text>
<text text-anchor="start" x="8" y="-339.8" font-family="Times Roman,serif" font-size="13.00">Migration version: 20120828035755</text>
<text text-anchor="start" x="8" y="-322.8" font-family="Times Roman,serif" font-size="13.00">Generated by RailRoady 1.0.8</text>
<text text-anchor="start" x="8" y="-305.8" font-family="Times Roman,serif" font-size="13.00">http://railroady.prestonlee.com</text>
</g>
<!-- Recipient -->
<g id="node2" class="node"><title>Recipient</title>
<ellipse fill="none" stroke="black" cx="121" cy="-167" rx="56.0679" ry="18.3848"/>
<text text-anchor="middle" x="121" y="-163.4" font-family="Times Roman,serif" font-size="14.00">Recipient</text>
</g>
<!-- Group -->
<g id="node8" class="node"><title>Group</title>
<ellipse fill="none" stroke="black" cx="163" cy="-93" rx="41.2167" ry="18.3848"/>
<text text-anchor="middle" x="163" y="-89.4" font-family="Times Roman,serif" font-size="14.00">Group</text>
</g>
<!-- Recipient&#45;&gt;Group -->
<g id="edge2" class="edge"><title>Recipient&#45;&gt;Group</title>
<path fill="none" stroke="#f76525" d="M136.384,-139.894C140.044,-133.447 143.949,-126.567 147.608,-120.119"/>
<polygon fill="#f76525" stroke="#f76525" points="136.318,-140.011 127.468,-146.487 133.85,-144.359 131.382,-148.708 131.382,-148.708 131.382,-148.708 133.85,-144.359 135.296,-150.929 136.318,-140.011 136.318,-140.011"/>
<polygon fill="#f76525" stroke="#f76525" points="147.801,-119.779 156.651,-113.303 150.269,-115.43 152.737,-111.082 152.737,-111.082 152.737,-111.082 150.269,-115.43 148.824,-108.86 147.801,-119.779 147.801,-119.779"/>
</g>
<!-- Event -->
<g id="node3" class="node"><title>Event</title>
<ellipse fill="none" stroke="black" cx="242" cy="-241" rx="39.8075" ry="18.3848"/>
<text text-anchor="middle" x="242" y="-237.4" font-family="Times Roman,serif" font-size="14.00">Event</text>
</g>
<!-- Event&#45;&gt;Recipient -->
<g id="edge10" class="edge"><title>Event&#45;&gt;Recipient</title>
<path fill="none" stroke="#7b4d76" d="M210.863,-221.958C194.204,-211.769 173.623,-199.183 156.362,-188.626"/>
<ellipse fill="none" stroke="#7b4d76" cx="214.392" cy="-224.116" rx="4.00002" ry="4.00002"/>
<polygon fill="#7b4d76" stroke="#7b4d76" points="156.208,-188.532 150.025,-179.476 151.942,-185.923 147.677,-183.315 147.677,-183.315 147.677,-183.315 151.942,-185.923 145.329,-187.154 156.208,-188.532 156.208,-188.532"/>
</g>
<!-- Event&#45;&gt;Group -->
<g id="edge4" class="edge"><title>Event&#45;&gt;Group</title>
<path fill="none" stroke="#00602b" d="M228.516,-215.739C214.348,-189.196 192.138,-147.587 177.573,-120.302"/>
<ellipse fill="none" stroke="#00602b" cx="230.429" cy="-219.324" rx="4.00002" ry="4.00002"/>
<polygon fill="#00602b" stroke="#00602b" points="177.475,-120.118 176.736,-109.177 175.121,-115.707 172.766,-111.296 172.766,-111.296 172.766,-111.296 175.121,-115.707 168.796,-113.415 177.475,-120.118 177.475,-120.118"/>
</g>
<!-- Setting -->
<g id="node9" class="node"><title>Setting</title>
<ellipse fill="none" stroke="black" cx="280" cy="-167" rx="46.8775" ry="18.3848"/>
<text text-anchor="middle" x="280" y="-163.4" font-family="Times Roman,serif" font-size="14.00">Setting</text>
</g>
<!-- Event&#45;&gt;Setting -->
<g id="edge8" class="edge"><title>Event&#45;&gt;Setting</title>
<path fill="none" stroke="#ea72aa" d="M255.132,-215.427C258.945,-208.002 263.107,-199.897 266.917,-192.478"/>
<ellipse fill="none" stroke="#ea72aa" cx="253.221" cy="-219.15" rx="4.00002" ry="4.00002"/>
<ellipse fill="#ea72aa" stroke="#ea72aa" cx="268.756" cy="-188.896" rx="4.00002" ry="4.00002"/>
</g>
<!-- Venue -->
<g id="node10" class="node"><title>Venue</title>
<ellipse fill="none" stroke="black" cx="387" cy="-167" rx="41.9273" ry="18.3848"/>
<text text-anchor="middle" x="387" y="-163.4" font-family="Times Roman,serif" font-size="14.00">Venue</text>
</g>
<!-- Event&#45;&gt;Venue -->
<g id="edge6" class="edge"><title>Event&#45;&gt;Venue</title>
<path fill="none" stroke="#945213" d="M276.158,-223.568C299.008,-211.906 328.992,-196.604 352.012,-184.856"/>
<ellipse fill="none" stroke="#945213" cx="272.496" cy="-225.436" rx="4.00002" ry="4.00002"/>
<ellipse fill="#945213" stroke="#945213" cx="355.661" cy="-182.994" rx="4.00002" ry="4.00002"/>
</g>
<!-- TextBlast -->
<g id="node4" class="node"><title>TextBlast</title>
<ellipse fill="none" stroke="black" cx="95" cy="-19" rx="56.0679" ry="18.3848"/>
<text text-anchor="middle" x="95" y="-15.4" font-family="Times Roman,serif" font-size="14.00">TextBlast</text>
</g>
<!-- User -->
<g id="node5" class="node"><title>User</title>
<ellipse fill="none" stroke="black" cx="302" cy="-343" rx="33.9411" ry="18.3848"/>
<text text-anchor="middle" x="302" y="-339.4" font-family="Times Roman,serif" font-size="14.00">User</text>
</g>
<!-- User&#45;&gt;Event -->
<g id="edge14" class="edge"><title>User&#45;&gt;Event</title>
<path fill="none" stroke="#30e856" d="M287.467,-318.294C278.45,-302.966 266.868,-283.275 257.65,-267.604"/>
<ellipse fill="none" stroke="#30e856" cx="289.521" cy="-321.785" rx="4.00002" ry="4.00002"/>
<polygon fill="#30e856" stroke="#30e856" points="257.603,-267.525 256.411,-256.624 255.068,-263.215 252.533,-258.906 252.533,-258.906 252.533,-258.906 255.068,-263.215 248.654,-261.187 257.603,-267.525 257.603,-267.525"/>
</g>
<!-- Auth -->
<g id="node7" class="node"><title>Auth</title>
<ellipse fill="none" stroke="black" cx="335" cy="-241" rx="34.8574" ry="18.3848"/>
<text text-anchor="middle" x="335" y="-237.4" font-family="Times Roman,serif" font-size="14.00">Auth</text>
</g>
<!-- User&#45;&gt;Auth -->
<g id="edge12" class="edge"><title>User&#45;&gt;Auth</title>
<path fill="none" stroke="#cc19dc" d="M310.433,-316.934C315.16,-302.322 321.06,-284.088 325.892,-269.151"/>
<ellipse fill="none" stroke="#cc19dc" cx="309.131" cy="-320.959" rx="4.00001" ry="4.00001"/>
<polygon fill="#cc19dc" stroke="#cc19dc" points="325.962,-268.936 333.322,-260.807 327.501,-264.179 329.04,-259.422 329.04,-259.422 329.04,-259.422 327.501,-264.179 324.759,-258.036 325.962,-268.936 325.962,-268.936"/>
</g>
<!-- Notifier -->
<g id="node6" class="node"><title>Notifier</title>
<polygon fill="none" stroke="black" points="490,-259 422,-259 422,-223 490,-223 490,-259"/>
<text text-anchor="middle" x="456" y="-237.4" font-family="Times Roman,serif" font-size="14.00">Notifier</text>
</g>
<!-- Group&#45;&gt;TextBlast -->
<g id="edge18" class="edge"><title>Group&#45;&gt;TextBlast</title>
<path fill="none" stroke="#be5407" d="M141.689,-69.8082C134.277,-61.7421 125.925,-52.6539 118.356,-44.4174"/>
<ellipse fill="none" stroke="#be5407" cx="144.522" cy="-72.8916" rx="4.00002" ry="4.00002"/>
<polygon fill="#be5407" stroke="#be5407" points="118.162,-44.2059 114.709,-33.7978 114.779,-40.5242 111.396,-36.8426 111.396,-36.8426 111.396,-36.8426 114.779,-40.5242 108.082,-39.8874 118.162,-44.2059 118.162,-44.2059"/>
</g>
<!-- EmailBlast -->
<g id="node11" class="node"><title>EmailBlast</title>
<ellipse fill="none" stroke="black" cx="232" cy="-19" rx="62.9325" ry="18.3848"/>
<text text-anchor="middle" x="232" y="-15.4" font-family="Times Roman,serif" font-size="14.00">EmailBlast</text>
</g>
<!-- Group&#45;&gt;EmailBlast -->
<g id="edge20" class="edge"><title>Group&#45;&gt;EmailBlast</title>
<path fill="none" stroke="#37dc3b" d="M184.582,-69.8539C192.045,-61.8506 200.45,-52.8364 208.088,-44.6446"/>
<ellipse fill="none" stroke="#37dc3b" cx="181.731" cy="-72.9114" rx="4.00002" ry="4.00002"/>
<polygon fill="#37dc3b" stroke="#37dc3b" points="208.301,-44.4163 218.412,-40.1713 211.711,-40.7594 215.121,-37.1024 215.121,-37.1024 215.121,-37.1024 211.711,-40.7594 211.829,-34.0336 208.301,-44.4163 208.301,-44.4163"/>
</g>
<!-- ActionMailer::Base -->
<g id="node19" class="node"><title>ActionMailer::Base</title>
<ellipse fill="none" stroke="black" cx="456" cy="-343" rx="101.823" ry="18.3848"/>
<text text-anchor="middle" x="456" y="-339.4" font-family="Times Roman,serif" font-size="14.00">ActionMailer::Base</text>
</g>
<!-- ActionMailer::Base&#45;&gt;Notifier -->
<g id="edge16" class="edge"><title>ActionMailer::Base&#45;&gt;Notifier</title>
<path fill="none" stroke="black" d="M456,-324.292C456,-305.773 456,-277.603 456,-259.247"/>
</g>
</g>
</svg>
