<?xml version="1.0" encoding="UTF-8" standalone="no"?>
<!DOCTYPE svg PUBLIC "-//W3C//DTD SVG 1.1//EN"
 "http://www.w3.org/Graphics/SVG/1.1/DTD/svg11.dtd">
<!-- Generated by graphviz version 2.26.3 (20100126.1600)
 -->
<!-- Title: models_diagram Pages: 1 -->
<svg width="769pt" height="1304pt"
 viewBox="0.00 0.00 769.00 1304.00" xmlns="http://www.w3.org/2000/svg" xmlns:xlink="http://www.w3.org/1999/xlink">
<g id="graph1" class="graph" transform="scale(1 1) rotate(0) translate(4 1300)">
<title>models_diagram</title>
<polygon fill="white" stroke="white" points="-4,5 -4,-1300 766,-1300 766,5 -4,5"/>
<!-- _diagram_info -->
<g id="node1" class="node"><title>_diagram_info</title>
<text text-anchor="start" x="25" y="-1119.8" font-family="Times Roman,serif" font-size="13.00">Models diagram</text>
<text text-anchor="start" x="25" y="-1102.8" font-family="Times Roman,serif" font-size="13.00">Date: Aug 28 2012 &#45; 00:20</text>
<text text-anchor="start" x="25" y="-1085.8" font-family="Times Roman,serif" font-size="13.00">Migration version: 20120828035755</text>
<text text-anchor="start" x="25" y="-1068.8" font-family="Times Roman,serif" font-size="13.00">Generated by RailRoady 1.0.8</text>
<text text-anchor="start" x="25" y="-1051.8" font-family="Times Roman,serif" font-size="13.00">http://railroady.prestonlee.com</text>
</g>
<!-- Recipient -->
<g id="node2" class="node"><title>Recipient</title>
<polyline fill="none" stroke="black" points="47.5,-388 188.5,-388 "/>
<path fill="none" stroke="black" d="M188.5,-388C194.5,-388 200.5,-394 200.5,-400"/>
<polyline fill="none" stroke="black" points="200.5,-400 200.5,-572 "/>
<path fill="none" stroke="black" d="M200.5,-572C200.5,-578 194.5,-584 188.5,-584"/>
<polyline fill="none" stroke="black" points="188.5,-584 47.5,-584 "/>
<path fill="none" stroke="black" d="M47.5,-584C41.5,-584 35.5,-578 35.5,-572"/>
<polyline fill="none" stroke="black" points="35.5,-572 35.5,-400 "/>
<path fill="none" stroke="black" d="M35.5,-400C35.5,-394 41.5,-388 47.5,-388"/>
<text text-anchor="middle" x="118" y="-567.4" font-family="Times Roman,serif" font-size="14.00">Recipient</text>
<polyline fill="none" stroke="black" points="35.5,-558 200.5,-558 "/>
<text text-anchor="start" x="43.5" y="-541.4" font-family="Times Roman,serif" font-size="14.00">id :integer</text>
<text text-anchor="start" x="43.5" y="-523.4" font-family="Times Roman,serif" font-size="14.00">name :string</text>
<text text-anchor="start" x="43.5" y="-505.4" font-family="Times Roman,serif" font-size="14.00">email :string</text>
<text text-anchor="start" x="43.5" y="-487.4" font-family="Times Roman,serif" font-size="14.00">phone :string</text>
<text text-anchor="start" x="43.5" y="-469.4" font-family="Times Roman,serif" font-size="14.00">facebook_id :string</text>
<text text-anchor="start" x="43.5" y="-451.4" font-family="Times Roman,serif" font-size="14.00">rsvp :string</text>
<text text-anchor="start" x="43.5" y="-433.4" font-family="Times Roman,serif" font-size="14.00">created_at :datetime</text>
<text text-anchor="start" x="43.5" y="-415.4" font-family="Times Roman,serif" font-size="14.00">updated_at :datetime</text>
<text text-anchor="start" x="43.5" y="-397.4" font-family="Times Roman,serif" font-size="14.00">event_id :integer</text>
</g>
<!-- Group -->
<g id="node8" class="node"><title>Group</title>
<polyline fill="none" stroke="black" points="102.5,-199 243.5,-199 "/>
<path fill="none" stroke="black" d="M243.5,-199C249.5,-199 255.5,-205 255.5,-211"/>
<polyline fill="none" stroke="black" points="255.5,-211 255.5,-311 "/>
<path fill="none" stroke="black" d="M255.5,-311C255.5,-317 249.5,-323 243.5,-323"/>
<polyline fill="none" stroke="black" points="243.5,-323 102.5,-323 "/>
<path fill="none" stroke="black" d="M102.5,-323C96.5,-323 90.5,-317 90.5,-311"/>
<polyline fill="none" stroke="black" points="90.5,-311 90.5,-211 "/>
<path fill="none" stroke="black" d="M90.5,-211C90.5,-205 96.5,-199 102.5,-199"/>
<text text-anchor="middle" x="173" y="-306.4" font-family="Times Roman,serif" font-size="14.00">Group</text>
<polyline fill="none" stroke="black" points="90.5,-297 255.5,-297 "/>
<text text-anchor="start" x="98.5" y="-280.4" font-family="Times Roman,serif" font-size="14.00">id :integer</text>
<text text-anchor="start" x="98.5" y="-262.4" font-family="Times Roman,serif" font-size="14.00">name :string</text>
<text text-anchor="start" x="98.5" y="-244.4" font-family="Times Roman,serif" font-size="14.00">created_at :datetime</text>
<text text-anchor="start" x="98.5" y="-226.4" font-family="Times Roman,serif" font-size="14.00">updated_at :datetime</text>
<text text-anchor="start" x="98.5" y="-208.4" font-family="Times Roman,serif" font-size="14.00">event_id :integer</text>
</g>
<!-- Recipient&#45;&gt;Group -->
<g id="edge2" class="edge"><title>Recipient&#45;&gt;Group</title>
<path fill="none" stroke="#ba03ea" d="M144.371,-378.119C148.121,-362.777 151.9,-347.32 155.426,-332.892"/>
<polygon fill="#ba03ea" stroke="#ba03ea" points="144.338,-378.252 137.593,-386.898 143.151,-383.109 141.964,-387.966 141.964,-387.966 141.964,-387.966 143.151,-383.109 146.335,-389.035 144.338,-378.252 144.338,-378.252"/>
<polygon fill="#ba03ea" stroke="#ba03ea" points="155.45,-332.796 162.196,-324.151 156.637,-327.94 157.824,-323.083 157.824,-323.083 157.824,-323.083 156.637,-327.94 153.453,-322.014 155.45,-332.796 155.45,-332.796"/>
</g>
<!-- Event -->
<g id="node3" class="node"><title>Event</title>
<polyline fill="none" stroke="black" points="215.5,-649 356.5,-649 "/>
<path fill="none" stroke="black" d="M356.5,-649C362.5,-649 368.5,-655 368.5,-661"/>
<polyline fill="none" stroke="black" points="368.5,-661 368.5,-833 "/>
<path fill="none" stroke="black" d="M368.5,-833C368.5,-839 362.5,-845 356.5,-845"/>
<polyline fill="none" stroke="black" points="356.5,-845 215.5,-845 "/>
<path fill="none" stroke="black" d="M215.5,-845C209.5,-845 203.5,-839 203.5,-833"/>
<polyline fill="none" stroke="black" points="203.5,-833 203.5,-661 "/>
<path fill="none" stroke="black" d="M203.5,-661C203.5,-655 209.5,-649 215.5,-649"/>
<text text-anchor="middle" x="286" y="-828.4" font-family="Times Roman,serif" font-size="14.00">Event</text>
<polyline fill="none" stroke="black" points="203.5,-819 368.5,-819 "/>
<text text-anchor="start" x="211.5" y="-802.4" font-family="Times Roman,serif" font-size="14.00">id :integer</text>
<text text-anchor="start" x="211.5" y="-784.4" font-family="Times Roman,serif" font-size="14.00">name :string</text>
<text text-anchor="start" x="211.5" y="-766.4" font-family="Times Roman,serif" font-size="14.00">desc :string</text>
<text text-anchor="start" x="211.5" y="-748.4" font-family="Times Roman,serif" font-size="14.00">start_time :datetime</text>
<text text-anchor="start" x="211.5" y="-730.4" font-family="Times Roman,serif" font-size="14.00">end_time :datetime</text>
<text text-anchor="start" x="211.5" y="-712.4" font-family="Times Roman,serif" font-size="14.00">created_at :datetime</text>
<text text-anchor="start" x="211.5" y="-694.4" font-family="Times Roman,serif" font-size="14.00">updated_at :datetime</text>
<text text-anchor="start" x="211.5" y="-676.4" font-family="Times Roman,serif" font-size="14.00">user_id :integer</text>
<text text-anchor="start" x="211.5" y="-658.4" font-family="Times Roman,serif" font-size="14.00">host :string</text>
</g>
<!-- Event&#45;&gt;Recipient -->
<g id="edge10" class="edge"><title>Event&#45;&gt;Recipient</title>
<path fill="none" stroke="#cf2858" d="M218.244,-641.737C207.831,-625.559 197.071,-608.843 186.639,-592.636"/>
<ellipse fill="none" stroke="#cf2858" cx="220.561" cy="-645.336" rx="4.00002" ry="4.00002"/>
<polygon fill="#cf2858" stroke="#cf2858" points="186.63,-592.621 185.001,-581.777 183.923,-588.417 181.217,-584.212 181.217,-584.212 181.217,-584.212 183.923,-588.417 177.433,-586.648 186.63,-592.621 186.63,-592.621"/>
</g>
<!-- Event&#45;&gt;Group -->
<g id="edge4" class="edge"><title>Event&#45;&gt;Group</title>
<path fill="none" stroke="#ce62e8" d="M253.985,-641.105C251.454,-631.307 249.078,-621.496 247,-612 222.785,-501.352 236.937,-469.767 209,-360 206.747,-351.149 204.004,-341.984 201.046,-332.965"/>
<ellipse fill="none" stroke="#ce62e8" cx="255.03" cy="-645.084" rx="4.00001" ry="4.00001"/>
<polygon fill="#ce62e8" stroke="#ce62e8" points="200.967,-332.73 202.03,-321.816 199.367,-327.993 197.767,-323.256 197.767,-323.256 197.767,-323.256 199.367,-327.993 193.503,-324.697 200.967,-332.73 200.967,-332.73"/>
</g>
<!-- Setting -->
<g id="node9" class="node"><title>Setting</title>
<polyline fill="none" stroke="black" points="267.5,-361 422.5,-361 "/>
<path fill="none" stroke="black" d="M422.5,-361C428.5,-361 434.5,-367 434.5,-373"/>
<polyline fill="none" stroke="black" points="434.5,-373 434.5,-599 "/>
<path fill="none" stroke="black" d="M434.5,-599C434.5,-605 428.5,-611 422.5,-611"/>
<polyline fill="none" stroke="black" points="422.5,-611 267.5,-611 "/>
<path fill="none" stroke="black" d="M267.5,-611C261.5,-611 255.5,-605 255.5,-599"/>
<polyline fill="none" stroke="black" points="255.5,-599 255.5,-373 "/>
<path fill="none" stroke="black" d="M255.5,-373C255.5,-367 261.5,-361 267.5,-361"/>
<text text-anchor="middle" x="345" y="-594.4" font-family="Times Roman,serif" font-size="14.00">Setting</text>
<polyline fill="none" stroke="black" points="255.5,-585 434.5,-585 "/>
<text text-anchor="start" x="263.5" y="-568.4" font-family="Times Roman,serif" font-size="14.00">id :integer</text>
<text text-anchor="start" x="263.5" y="-550.4" font-family="Times Roman,serif" font-size="14.00">require_email :boolean</text>
<text text-anchor="start" x="263.5" y="-532.4" font-family="Times Roman,serif" font-size="14.00">require_phone :boolean</text>
<text text-anchor="start" x="263.5" y="-514.4" font-family="Times Roman,serif" font-size="14.00">require_rsvp :boolean</text>
<text text-anchor="start" x="263.5" y="-496.4" font-family="Times Roman,serif" font-size="14.00">offer_email :boolean</text>
<text text-anchor="start" x="263.5" y="-478.4" font-family="Times Roman,serif" font-size="14.00">offer_phone :boolean</text>
<text text-anchor="start" x="263.5" y="-460.4" font-family="Times Roman,serif" font-size="14.00">offer_rsvp :boolean</text>
<text text-anchor="start" x="263.5" y="-442.4" font-family="Times Roman,serif" font-size="14.00">created_at :datetime</text>
<text text-anchor="start" x="263.5" y="-424.4" font-family="Times Roman,serif" font-size="14.00">updated_at :datetime</text>
<text text-anchor="start" x="263.5" y="-406.4" font-family="Times Roman,serif" font-size="14.00">event_id :integer</text>
<text text-anchor="start" x="263.5" y="-388.4" font-family="Times Roman,serif" font-size="14.00">require_name :string</text>
<text text-anchor="start" x="263.5" y="-370.4" font-family="Times Roman,serif" font-size="14.00">offer_name :string</text>
</g>
<!-- Event&#45;&gt;Setting -->
<g id="edge8" class="edge"><title>Event&#45;&gt;Setting</title>
<path fill="none" stroke="#61cc43" d="M309.99,-640.877C311.618,-633.672 313.27,-626.365 314.924,-619.047"/>
<ellipse fill="none" stroke="#61cc43" cx="309.103" cy="-644.797" rx="4.00001" ry="4.00001"/>
<ellipse fill="#61cc43" stroke="#61cc43" cx="315.837" cy="-615.008" rx="4.00001" ry="4.00001"/>
</g>
<!-- Venue -->
<g id="node10" class="node"><title>Venue</title>
<polyline fill="none" stroke="black" points="463.5,-379 604.5,-379 "/>
<path fill="none" stroke="black" d="M604.5,-379C610.5,-379 616.5,-385 616.5,-391"/>
<polyline fill="none" stroke="black" points="616.5,-391 616.5,-581 "/>
<path fill="none" stroke="black" d="M616.5,-581C616.5,-587 610.5,-593 604.5,-593"/>
<polyline fill="none" stroke="black" points="604.5,-593 463.5,-593 "/>
<path fill="none" stroke="black" d="M463.5,-593C457.5,-593 451.5,-587 451.5,-581"/>
<polyline fill="none" stroke="black" points="451.5,-581 451.5,-391 "/>
<path fill="none" stroke="black" d="M451.5,-391C451.5,-385 457.5,-379 463.5,-379"/>
<text text-anchor="middle" x="534" y="-576.4" font-family="Times Roman,serif" font-size="14.00">Venue</text>
<polyline fill="none" stroke="black" points="451.5,-567 616.5,-567 "/>
<text text-anchor="start" x="459.5" y="-550.4" font-family="Times Roman,serif" font-size="14.00">id :integer</text>
<text text-anchor="start" x="459.5" y="-532.4" font-family="Times Roman,serif" font-size="14.00">street :string</text>
<text text-anchor="start" x="459.5" y="-514.4" font-family="Times Roman,serif" font-size="14.00">street2 :string</text>
<text text-anchor="start" x="459.5" y="-496.4" font-family="Times Roman,serif" font-size="14.00">city :string</text>
<text text-anchor="start" x="459.5" y="-478.4" font-family="Times Roman,serif" font-size="14.00">state :string</text>
<text text-anchor="start" x="459.5" y="-460.4" font-family="Times Roman,serif" font-size="14.00">zip :string</text>
<text text-anchor="start" x="459.5" y="-442.4" font-family="Times Roman,serif" font-size="14.00">location :string</text>
<text text-anchor="start" x="459.5" y="-424.4" font-family="Times Roman,serif" font-size="14.00">created_at :datetime</text>
<text text-anchor="start" x="459.5" y="-406.4" font-family="Times Roman,serif" font-size="14.00">updated_at :datetime</text>
<text text-anchor="start" x="459.5" y="-388.4" font-family="Times Roman,serif" font-size="14.00">event_id :integer</text>
</g>
<!-- Event&#45;&gt;Venue -->
<g id="edge6" class="edge"><title>Event&#45;&gt;Venue</title>
<path fill="none" stroke="#3c82f0" d="M375.191,-649.427C375.793,-648.948 376.396,-648.472 377,-648 403.326,-627.424 417.931,-634.091 443,-612 447.626,-607.923 452.152,-603.571 456.557,-599.023"/>
<ellipse fill="none" stroke="#3c82f0" cx="371.853" cy="-652.173" rx="4.00002" ry="4.00002"/>
<ellipse fill="#3c82f0" stroke="#3c82f0" cx="459.331" cy="-596.078" rx="4.00002" ry="4.00002"/>
</g>
<!-- TextBlast -->
<g id="node4" class="node"><title>TextBlast</title>
<polyline fill="none" stroke="black" points="11.5,-1 152.5,-1 "/>
<path fill="none" stroke="black" d="M152.5,-1C158.5,-1 164.5,-7 164.5,-13"/>
<polyline fill="none" stroke="black" points="164.5,-13 164.5,-149 "/>
<path fill="none" stroke="black" d="M164.5,-149C164.5,-155 158.5,-161 152.5,-161"/>
<polyline fill="none" stroke="black" points="152.5,-161 11.5,-161 "/>
<path fill="none" stroke="black" d="M11.5,-161C5.5,-161 -0.5,-155 -0.5,-149"/>
<polyline fill="none" stroke="black" points="-0.5,-149 -0.5,-13 "/>
<path fill="none" stroke="black" d="M-0.5,-13C-0.5,-7 5.5,-1 11.5,-1"/>
<text text-anchor="middle" x="82" y="-144.4" font-family="Times Roman,serif" font-size="14.00">TextBlast</text>
<polyline fill="none" stroke="black" points="-0.5,-135 164.5,-135 "/>
<text text-anchor="start" x="7.5" y="-118.4" font-family="Times Roman,serif" font-size="14.00">id :integer</text>
<text text-anchor="start" x="7.5" y="-100.4" font-family="Times Roman,serif" font-size="14.00">done :boolean</text>
<text text-anchor="start" x="7.5" y="-82.4" font-family="Times Roman,serif" font-size="14.00">contents :string</text>
<text text-anchor="start" x="7.5" y="-64.4" font-family="Times Roman,serif" font-size="14.00">schedule :datetime</text>
<text text-anchor="start" x="7.5" y="-46.4" font-family="Times Roman,serif" font-size="14.00">created_at :datetime</text>
<text text-anchor="start" x="7.5" y="-28.4" font-family="Times Roman,serif" font-size="14.00">updated_at :datetime</text>
<text text-anchor="start" x="7.5" y="-10.4" font-family="Times Roman,serif" font-size="14.00">group_id :integer</text>
</g>
<!-- User -->
<g id="node5" class="node"><title>User</title>
<polyline fill="none" stroke="black" points="297,-883 527,-883 "/>
<path fill="none" stroke="black" d="M527,-883C533,-883 539,-889 539,-895"/>
<polyline fill="none" stroke="black" points="539,-895 539,-1283 "/>
<path fill="none" stroke="black" d="M539,-1283C539,-1289 533,-1295 527,-1295"/>
<polyline fill="none" stroke="black" points="527,-1295 297,-1295 "/>
<path fill="none" stroke="black" d="M297,-1295C291,-1295 285,-1289 285,-1283"/>
<polyline fill="none" stroke="black" points="285,-1283 285,-895 "/>
<path fill="none" stroke="black" d="M285,-895C285,-889 291,-883 297,-883"/>
<text text-anchor="middle" x="412" y="-1278.4" font-family="Times Roman,serif" font-size="14.00">User</text>
<polyline fill="none" stroke="black" points="285,-1269 539,-1269 "/>
<text text-anchor="start" x="293" y="-1252.4" font-family="Times Roman,serif" font-size="14.00">id :integer</text>
<text text-anchor="start" x="293" y="-1234.4" font-family="Times Roman,serif" font-size="14.00">email :string</text>
<text text-anchor="start" x="293" y="-1216.4" font-family="Times Roman,serif" font-size="14.00">encrypted_password :string</text>
<text text-anchor="start" x="293" y="-1198.4" font-family="Times Roman,serif" font-size="14.00">reset_password_token :string</text>
<text text-anchor="start" x="293" y="-1180.4" font-family="Times Roman,serif" font-size="14.00">reset_password_sent_at :datetime</text>
<text text-anchor="start" x="293" y="-1162.4" font-family="Times Roman,serif" font-size="14.00">remember_created_at :datetime</text>
<text text-anchor="start" x="293" y="-1144.4" font-family="Times Roman,serif" font-size="14.00">sign_in_count :integer</text>
<text text-anchor="start" x="293" y="-1126.4" font-family="Times Roman,serif" font-size="14.00">current_sign_in_at :datetime</text>
<text text-anchor="start" x="293" y="-1108.4" font-family="Times Roman,serif" font-size="14.00">last_sign_in_at :datetime</text>
<text text-anchor="start" x="293" y="-1090.4" font-family="Times Roman,serif" font-size="14.00">current_sign_in_ip :string</text>
<text text-anchor="start" x="293" y="-1072.4" font-family="Times Roman,serif" font-size="14.00">last_sign_in_ip :string</text>
<text text-anchor="start" x="293" y="-1054.4" font-family="Times Roman,serif" font-size="14.00">confirmation_token :string</text>
<text text-anchor="start" x="293" y="-1036.4" font-family="Times Roman,serif" font-size="14.00">confirmed_at :datetime</text>
<text text-anchor="start" x="293" y="-1018.4" font-family="Times Roman,serif" font-size="14.00">confirmation_sent_at :datetime</text>
<text text-anchor="start" x="293" y="-1000.4" font-family="Times Roman,serif" font-size="14.00">unconfirmed_email :string</text>
<text text-anchor="start" x="293" y="-982.4" font-family="Times Roman,serif" font-size="14.00">first_name :string</text>
<text text-anchor="start" x="293" y="-964.4" font-family="Times Roman,serif" font-size="14.00">last_name :string</text>
<text text-anchor="start" x="293" y="-946.4" font-family="Times Roman,serif" font-size="14.00">phone :string</text>
<text text-anchor="start" x="293" y="-928.4" font-family="Times Roman,serif" font-size="14.00">company :string</text>
<text text-anchor="start" x="293" y="-910.4" font-family="Times Roman,serif" font-size="14.00">created_at :datetime</text>
<text text-anchor="start" x="293" y="-892.4" font-family="Times Roman,serif" font-size="14.00">updated_at :datetime</text>
</g>
<!-- User&#45;&gt;Event -->
<g id="edge14" class="edge"><title>User&#45;&gt;Event</title>
<path fill="none" stroke="#06ceca" d="M333.111,-874.873C330.604,-868.067 328.132,-861.359 325.714,-854.795"/>
<ellipse fill="none" stroke="#06ceca" cx="334.597" cy="-878.905" rx="4.00001" ry="4.00001"/>
<polygon fill="#06ceca" stroke="#06ceca" points="325.668,-854.671 326.434,-843.731 323.94,-849.979 322.211,-845.287 322.211,-845.287 322.211,-845.287 323.94,-849.979 317.989,-846.843 325.668,-854.671 325.668,-854.671"/>
</g>
<!-- Auth -->
<g id="node7" class="node"><title>Auth</title>
<polyline fill="none" stroke="black" points="397.5,-667 538.5,-667 "/>
<path fill="none" stroke="black" d="M538.5,-667C544.5,-667 550.5,-673 550.5,-679"/>
<polyline fill="none" stroke="black" points="550.5,-679 550.5,-815 "/>
<path fill="none" stroke="black" d="M550.5,-815C550.5,-821 544.5,-827 538.5,-827"/>
<polyline fill="none" stroke="black" points="538.5,-827 397.5,-827 "/>
<path fill="none" stroke="black" d="M397.5,-827C391.5,-827 385.5,-821 385.5,-815"/>
<polyline fill="none" stroke="black" points="385.5,-815 385.5,-679 "/>
<path fill="none" stroke="black" d="M385.5,-679C385.5,-673 391.5,-667 397.5,-667"/>
<text text-anchor="middle" x="468" y="-810.4" font-family="Times Roman,serif" font-size="14.00">Auth</text>
<polyline fill="none" stroke="black" points="385.5,-801 550.5,-801 "/>
<text text-anchor="start" x="393.5" y="-784.4" font-family="Times Roman,serif" font-size="14.00">id :integer</text>
<text text-anchor="start" x="393.5" y="-766.4" font-family="Times Roman,serif" font-size="14.00">token :string</text>
<text text-anchor="start" x="393.5" y="-748.4" font-family="Times Roman,serif" font-size="14.00">secret :string</text>
<text text-anchor="start" x="393.5" y="-730.4" font-family="Times Roman,serif" font-size="14.00">provider :string</text>
<text text-anchor="start" x="393.5" y="-712.4" font-family="Times Roman,serif" font-size="14.00">created_at :datetime</text>
<text text-anchor="start" x="393.5" y="-694.4" font-family="Times Roman,serif" font-size="14.00">updated_at :datetime</text>
<text text-anchor="start" x="393.5" y="-676.4" font-family="Times Roman,serif" font-size="14.00">user_id :integer</text>
</g>
<!-- User&#45;&gt;Auth -->
<g id="edge12" class="edge"><title>User&#45;&gt;Auth</title>
<path fill="none" stroke="#9c9666" d="M447.125,-874.487C449.222,-861.681 451.262,-849.223 453.193,-837.429"/>
<ellipse fill="none" stroke="#9c9666" cx="446.433" cy="-878.711" rx="4.00001" ry="4.00001"/>
<polygon fill="#9c9666" stroke="#9c9666" points="453.245,-837.111 459.302,-827.97 454.053,-832.177 454.861,-827.243 454.861,-827.243 454.861,-827.243 454.053,-832.177 450.42,-826.516 453.245,-837.111 453.245,-837.111"/>
</g>
<!-- Notifier -->
<g id="node6" class="node"><title>Notifier</title>
<polygon fill="none" stroke="black" points="625,-721 625,-773 693,-773 693,-721 625,-721"/>
<text text-anchor="middle" x="659" y="-756.4" font-family="Times Roman,serif" font-size="14.00">Notifier</text>
<polyline fill="none" stroke="black" points="625,-747 693,-747 "/>
<text text-anchor="middle" x="659" y="-730.4" font-family="Times Roman,serif" font-size="14.00"> </text>
</g>
<!-- Group&#45;&gt;TextBlast -->
<g id="edge18" class="edge"><title>Group&#45;&gt;TextBlast</title>
<path fill="none" stroke="#f20d37" d="M137.934,-191.639C134.403,-184.655 130.784,-177.495 127.167,-170.341"/>
<ellipse fill="none" stroke="#f20d37" cx="139.751" cy="-195.232" rx="4.00002" ry="4.00002"/>
<polygon fill="#f20d37" stroke="#f20d37" points="127.106,-170.22 126.61,-159.265 124.85,-165.758 122.594,-161.295 122.594,-161.295 122.594,-161.295 124.85,-165.758 118.578,-163.326 127.106,-170.22 127.106,-170.22"/>
</g>
<!-- EmailBlast -->
<g id="node11" class="node"><title>EmailBlast</title>
<polyline fill="none" stroke="black" points="193.5,-1 334.5,-1 "/>
<path fill="none" stroke="black" d="M334.5,-1C340.5,-1 346.5,-7 346.5,-13"/>
<polyline fill="none" stroke="black" points="346.5,-13 346.5,-149 "/>
<path fill="none" stroke="black" d="M346.5,-149C346.5,-155 340.5,-161 334.5,-161"/>
<polyline fill="none" stroke="black" points="334.5,-161 193.5,-161 "/>
<path fill="none" stroke="black" d="M193.5,-161C187.5,-161 181.5,-155 181.5,-149"/>
<polyline fill="none" stroke="black" points="181.5,-149 181.5,-13 "/>
<path fill="none" stroke="black" d="M181.5,-13C181.5,-7 187.5,-1 193.5,-1"/>
<text text-anchor="middle" x="264" y="-144.4" font-family="Times Roman,serif" font-size="14.00">EmailBlast</text>
<polyline fill="none" stroke="black" points="181.5,-135 346.5,-135 "/>
<text text-anchor="start" x="189.5" y="-118.4" font-family="Times Roman,serif" font-size="14.00">id :integer</text>
<text text-anchor="start" x="189.5" y="-100.4" font-family="Times Roman,serif" font-size="14.00">done :boolean</text>
<text text-anchor="start" x="189.5" y="-82.4" font-family="Times Roman,serif" font-size="14.00">contents :string</text>
<text text-anchor="start" x="189.5" y="-64.4" font-family="Times Roman,serif" font-size="14.00">schedule :datetime</text>
<text text-anchor="start" x="189.5" y="-46.4" font-family="Times Roman,serif" font-size="14.00">created_at :datetime</text>
<text text-anchor="start" x="189.5" y="-28.4" font-family="Times Roman,serif" font-size="14.00">updated_at :datetime</text>
<text text-anchor="start" x="189.5" y="-10.4" font-family="Times Roman,serif" font-size="14.00">group_id :integer</text>
</g>
<!-- Group&#45;&gt;EmailBlast -->
<g id="edge20" class="edge"><title>Group&#45;&gt;EmailBlast</title>
<path fill="none" stroke="#cadece" d="M208.066,-191.639C211.597,-184.655 215.216,-177.495 218.833,-170.341"/>
<ellipse fill="none" stroke="#cadece" cx="206.249" cy="-195.232" rx="4.00002" ry="4.00002"/>
<polygon fill="#cadece" stroke="#cadece" points="218.894,-170.22 227.422,-163.326 221.15,-165.758 223.406,-161.295 223.406,-161.295 223.406,-161.295 221.15,-165.758 219.39,-159.265 218.894,-170.22 218.894,-170.22"/>
</g>
<!-- ActionMailer::Base -->
<g id="node19" class="node"><title>ActionMailer::Base</title>
<ellipse fill="none" stroke="black" cx="659" cy="-1089" rx="101.823" ry="18.3848"/>
<text text-anchor="middle" x="659" y="-1085.4" font-family="Times Roman,serif" font-size="14.00">ActionMailer::Base</text>
</g>
<!-- ActionMailer::Base&#45;&gt;Notifier -->
<g id="edge16" class="edge"><title>ActionMailer::Base&#45;&gt;Notifier</title>
<path fill="none" stroke="black" d="M659,-1070.13C659,-1012.57 659,-839.203 659,-773.042"/>
</g>
</g>
</svg>
