<?xml version="1.0" encoding="UTF-8" standalone="no"?>
<!DOCTYPE svg PUBLIC "-//W3C//DTD SVG 1.1//EN"
 "http://www.w3.org/Graphics/SVG/1.1/DTD/svg11.dtd">
<!-- Generated by graphviz version 2.26.3 (20100126.1600)
 -->
<!-- Title: models_diagram Pages: 1 -->
<svg width="861pt" height="1106pt"
 viewBox="0.00 0.00 861.00 1106.00" xmlns="http://www.w3.org/2000/svg" xmlns:xlink="http://www.w3.org/1999/xlink">
<g id="graph1" class="graph" transform="scale(1 1) rotate(0) translate(4 1102)">
<title>models_diagram</title>
<polygon fill="white" stroke="white" points="-4,5 -4,-1102 858,-1102 858,5 -4,5"/>
<!-- _diagram_info -->
<g id="node1" class="node"><title>_diagram_info</title>
<text text-anchor="start" x="83" y="-921.8" font-family="Times Roman,serif" font-size="13.00">Models diagram</text>
<text text-anchor="start" x="83" y="-904.8" font-family="Times Roman,serif" font-size="13.00">Date: Aug 27 2012 &#45; 20:18</text>
<text text-anchor="start" x="83" y="-887.8" font-family="Times Roman,serif" font-size="13.00">Migration version: 20120828001231</text>
<text text-anchor="start" x="83" y="-870.8" font-family="Times Roman,serif" font-size="13.00">Generated by RailRoady 1.0.8</text>
<text text-anchor="start" x="83" y="-853.8" font-family="Times Roman,serif" font-size="13.00">http://railroady.prestonlee.com</text>
</g>
<!-- Recipient -->
<g id="node2" class="node"><title>Recipient</title>
<polyline fill="none" stroke="black" points="102.5,-460 243.5,-460 "/>
<path fill="none" stroke="black" d="M243.5,-460C249.5,-460 255.5,-466 255.5,-472"/>
<polyline fill="none" stroke="black" points="255.5,-472 255.5,-626 "/>
<path fill="none" stroke="black" d="M255.5,-626C255.5,-632 249.5,-638 243.5,-638"/>
<polyline fill="none" stroke="black" points="243.5,-638 102.5,-638 "/>
<path fill="none" stroke="black" d="M102.5,-638C96.5,-638 90.5,-632 90.5,-626"/>
<polyline fill="none" stroke="black" points="90.5,-626 90.5,-472 "/>
<path fill="none" stroke="black" d="M90.5,-472C90.5,-466 96.5,-460 102.5,-460"/>
<text text-anchor="middle" x="173" y="-621.4" font-family="Times Roman,serif" font-size="14.00">Recipient</text>
<polyline fill="none" stroke="black" points="90.5,-612 255.5,-612 "/>
<text text-anchor="start" x="98.5" y="-595.4" font-family="Times Roman,serif" font-size="14.00">id :integer</text>
<text text-anchor="start" x="98.5" y="-577.4" font-family="Times Roman,serif" font-size="14.00">name :string</text>
<text text-anchor="start" x="98.5" y="-559.4" font-family="Times Roman,serif" font-size="14.00">email :string</text>
<text text-anchor="start" x="98.5" y="-541.4" font-family="Times Roman,serif" font-size="14.00">phone :string</text>
<text text-anchor="start" x="98.5" y="-523.4" font-family="Times Roman,serif" font-size="14.00">facebook_id :string</text>
<text text-anchor="start" x="98.5" y="-505.4" font-family="Times Roman,serif" font-size="14.00">rsvp :string</text>
<text text-anchor="start" x="98.5" y="-487.4" font-family="Times Roman,serif" font-size="14.00">created_at :datetime</text>
<text text-anchor="start" x="98.5" y="-469.4" font-family="Times Roman,serif" font-size="14.00">updated_at :datetime</text>
</g>
<!-- Group -->
<g id="node8" class="node"><title>Group</title>
<polyline fill="none" stroke="black" points="102.5,-244 243.5,-244 "/>
<path fill="none" stroke="black" d="M243.5,-244C249.5,-244 255.5,-250 255.5,-256"/>
<polyline fill="none" stroke="black" points="255.5,-256 255.5,-356 "/>
<path fill="none" stroke="black" d="M255.5,-356C255.5,-362 249.5,-368 243.5,-368"/>
<polyline fill="none" stroke="black" points="243.5,-368 102.5,-368 "/>
<path fill="none" stroke="black" d="M102.5,-368C96.5,-368 90.5,-362 90.5,-356"/>
<polyline fill="none" stroke="black" points="90.5,-356 90.5,-256 "/>
<path fill="none" stroke="black" d="M90.5,-256C90.5,-250 96.5,-244 102.5,-244"/>
<text text-anchor="middle" x="173" y="-351.4" font-family="Times Roman,serif" font-size="14.00">Group</text>
<polyline fill="none" stroke="black" points="90.5,-342 255.5,-342 "/>
<text text-anchor="start" x="98.5" y="-325.4" font-family="Times Roman,serif" font-size="14.00">id :integer</text>
<text text-anchor="start" x="98.5" y="-307.4" font-family="Times Roman,serif" font-size="14.00">name :string</text>
<text text-anchor="start" x="98.5" y="-289.4" font-family="Times Roman,serif" font-size="14.00">created_at :datetime</text>
<text text-anchor="start" x="98.5" y="-271.4" font-family="Times Roman,serif" font-size="14.00">updated_at :datetime</text>
<text text-anchor="start" x="98.5" y="-253.4" font-family="Times Roman,serif" font-size="14.00">event_id :integer</text>
</g>
<!-- Recipient&#45;&gt;Group -->
<g id="edge2" class="edge"><title>Recipient&#45;&gt;Group</title>
<path fill="none" stroke="#600e94" d="M173,-449.801C173,-425.845 173,-400.691 173,-378.239"/>
<polygon fill="#600e94" stroke="#600e94" points="173,-449.896 168.5,-459.896 173,-454.896 173,-459.896 173,-459.896 173,-459.896 173,-454.896 177.5,-459.896 173,-449.896 173,-449.896"/>
<polygon fill="#600e94" stroke="#600e94" points="173,-378.128 177.5,-368.127 173,-373.128 173,-368.128 173,-368.128 173,-368.128 173,-373.128 168.5,-368.128 173,-378.128 173,-378.128"/>
</g>
<!-- Event -->
<g id="node3" class="node"><title>Event</title>
<polyline fill="none" stroke="black" points="291.5,-451 432.5,-451 "/>
<path fill="none" stroke="black" d="M432.5,-451C438.5,-451 444.5,-457 444.5,-463"/>
<polyline fill="none" stroke="black" points="444.5,-463 444.5,-635 "/>
<path fill="none" stroke="black" d="M444.5,-635C444.5,-641 438.5,-647 432.5,-647"/>
<polyline fill="none" stroke="black" points="432.5,-647 291.5,-647 "/>
<path fill="none" stroke="black" d="M291.5,-647C285.5,-647 279.5,-641 279.5,-635"/>
<polyline fill="none" stroke="black" points="279.5,-635 279.5,-463 "/>
<path fill="none" stroke="black" d="M279.5,-463C279.5,-457 285.5,-451 291.5,-451"/>
<text text-anchor="middle" x="362" y="-630.4" font-family="Times Roman,serif" font-size="14.00">Event</text>
<polyline fill="none" stroke="black" points="279.5,-621 444.5,-621 "/>
<text text-anchor="start" x="287.5" y="-604.4" font-family="Times Roman,serif" font-size="14.00">id :integer</text>
<text text-anchor="start" x="287.5" y="-586.4" font-family="Times Roman,serif" font-size="14.00">name :string</text>
<text text-anchor="start" x="287.5" y="-568.4" font-family="Times Roman,serif" font-size="14.00">desc :string</text>
<text text-anchor="start" x="287.5" y="-550.4" font-family="Times Roman,serif" font-size="14.00">start_time :datetime</text>
<text text-anchor="start" x="287.5" y="-532.4" font-family="Times Roman,serif" font-size="14.00">end_time :datetime</text>
<text text-anchor="start" x="287.5" y="-514.4" font-family="Times Roman,serif" font-size="14.00">created_at :datetime</text>
<text text-anchor="start" x="287.5" y="-496.4" font-family="Times Roman,serif" font-size="14.00">updated_at :datetime</text>
<text text-anchor="start" x="287.5" y="-478.4" font-family="Times Roman,serif" font-size="14.00">user_id :integer</text>
<text text-anchor="start" x="287.5" y="-460.4" font-family="Times Roman,serif" font-size="14.00">host :string</text>
</g>
<!-- Event&#45;&gt;Group -->
<g id="edge4" class="edge"><title>Event&#45;&gt;Group</title>
<path fill="none" stroke="#721fc7" d="M280.559,-444.29C262.658,-421.275 244.121,-397.441 227.582,-376.176"/>
<ellipse fill="none" stroke="#721fc7" cx="283.215" cy="-447.706" rx="4.00002" ry="4.00002"/>
<polygon fill="#721fc7" stroke="#721fc7" points="227.486,-376.053 224.898,-365.397 224.416,-372.106 221.346,-368.16 221.346,-368.16 221.346,-368.16 224.416,-372.106 217.794,-370.922 227.486,-376.053 227.486,-376.053"/>
</g>
<!-- Setting -->
<g id="node9" class="node"><title>Setting</title>
<polyline fill="none" stroke="black" points="284.5,-199 439.5,-199 "/>
<path fill="none" stroke="black" d="M439.5,-199C445.5,-199 451.5,-205 451.5,-211"/>
<polyline fill="none" stroke="black" points="451.5,-211 451.5,-401 "/>
<path fill="none" stroke="black" d="M451.5,-401C451.5,-407 445.5,-413 439.5,-413"/>
<polyline fill="none" stroke="black" points="439.5,-413 284.5,-413 "/>
<path fill="none" stroke="black" d="M284.5,-413C278.5,-413 272.5,-407 272.5,-401"/>
<polyline fill="none" stroke="black" points="272.5,-401 272.5,-211 "/>
<path fill="none" stroke="black" d="M272.5,-211C272.5,-205 278.5,-199 284.5,-199"/>
<text text-anchor="middle" x="362" y="-396.4" font-family="Times Roman,serif" font-size="14.00">Setting</text>
<polyline fill="none" stroke="black" points="272.5,-387 451.5,-387 "/>
<text text-anchor="start" x="280.5" y="-370.4" font-family="Times Roman,serif" font-size="14.00">id :integer</text>
<text text-anchor="start" x="280.5" y="-352.4" font-family="Times Roman,serif" font-size="14.00">require_email :boolean</text>
<text text-anchor="start" x="280.5" y="-334.4" font-family="Times Roman,serif" font-size="14.00">require_phone :boolean</text>
<text text-anchor="start" x="280.5" y="-316.4" font-family="Times Roman,serif" font-size="14.00">require_rsvp :boolean</text>
<text text-anchor="start" x="280.5" y="-298.4" font-family="Times Roman,serif" font-size="14.00">offer_email :boolean</text>
<text text-anchor="start" x="280.5" y="-280.4" font-family="Times Roman,serif" font-size="14.00">offer_phone :boolean</text>
<text text-anchor="start" x="280.5" y="-262.4" font-family="Times Roman,serif" font-size="14.00">offer_rsvp :boolean</text>
<text text-anchor="start" x="280.5" y="-244.4" font-family="Times Roman,serif" font-size="14.00">created_at :datetime</text>
<text text-anchor="start" x="280.5" y="-226.4" font-family="Times Roman,serif" font-size="14.00">updated_at :datetime</text>
<text text-anchor="start" x="280.5" y="-208.4" font-family="Times Roman,serif" font-size="14.00">event_id :integer</text>
</g>
<!-- Event&#45;&gt;Setting -->
<g id="edge8" class="edge"><title>Event&#45;&gt;Setting</title>
<path fill="none" stroke="#7fe612" d="M362,-442.695C362,-435.674 362,-428.584 362,-421.522"/>
<ellipse fill="none" stroke="#7fe612" cx="362" cy="-446.863" rx="4" ry="4"/>
<ellipse fill="#7fe612" stroke="#7fe612" cx="362" cy="-417.249" rx="4" ry="4"/>
</g>
<!-- Venue -->
<g id="node10" class="node"><title>Venue</title>
<polyline fill="none" stroke="black" points="480.5,-199 621.5,-199 "/>
<path fill="none" stroke="black" d="M621.5,-199C627.5,-199 633.5,-205 633.5,-211"/>
<polyline fill="none" stroke="black" points="633.5,-211 633.5,-401 "/>
<path fill="none" stroke="black" d="M633.5,-401C633.5,-407 627.5,-413 621.5,-413"/>
<polyline fill="none" stroke="black" points="621.5,-413 480.5,-413 "/>
<path fill="none" stroke="black" d="M480.5,-413C474.5,-413 468.5,-407 468.5,-401"/>
<polyline fill="none" stroke="black" points="468.5,-401 468.5,-211 "/>
<path fill="none" stroke="black" d="M468.5,-211C468.5,-205 474.5,-199 480.5,-199"/>
<text text-anchor="middle" x="551" y="-396.4" font-family="Times Roman,serif" font-size="14.00">Venue</text>
<polyline fill="none" stroke="black" points="468.5,-387 633.5,-387 "/>
<text text-anchor="start" x="476.5" y="-370.4" font-family="Times Roman,serif" font-size="14.00">id :integer</text>
<text text-anchor="start" x="476.5" y="-352.4" font-family="Times Roman,serif" font-size="14.00">street :string</text>
<text text-anchor="start" x="476.5" y="-334.4" font-family="Times Roman,serif" font-size="14.00">street2 :string</text>
<text text-anchor="start" x="476.5" y="-316.4" font-family="Times Roman,serif" font-size="14.00">city :string</text>
<text text-anchor="start" x="476.5" y="-298.4" font-family="Times Roman,serif" font-size="14.00">state :string</text>
<text text-anchor="start" x="476.5" y="-280.4" font-family="Times Roman,serif" font-size="14.00">zip :string</text>
<text text-anchor="start" x="476.5" y="-262.4" font-family="Times Roman,serif" font-size="14.00">location :string</text>
<text text-anchor="start" x="476.5" y="-244.4" font-family="Times Roman,serif" font-size="14.00">created_at :datetime</text>
<text text-anchor="start" x="476.5" y="-226.4" font-family="Times Roman,serif" font-size="14.00">updated_at :datetime</text>
<text text-anchor="start" x="476.5" y="-208.4" font-family="Times Roman,serif" font-size="14.00">event_id :integer</text>
</g>
<!-- Event&#45;&gt;Venue -->
<g id="edge6" class="edge"><title>Event&#45;&gt;Venue</title>
<path fill="none" stroke="#cefbba" d="M443.422,-444.315C449.965,-435.902 456.594,-427.379 463.18,-418.912"/>
<ellipse fill="none" stroke="#cefbba" cx="440.785" cy="-447.706" rx="4.00002" ry="4.00002"/>
<ellipse fill="#cefbba" stroke="#cefbba" cx="465.749" cy="-415.608" rx="4.00002" ry="4.00002"/>
</g>
<!-- TextBlast -->
<g id="node4" class="node"><title>TextBlast</title>
<polyline fill="none" stroke="black" points="11.5,-1 152.5,-1 "/>
<path fill="none" stroke="black" d="M152.5,-1C158.5,-1 164.5,-7 164.5,-13"/>
<polyline fill="none" stroke="black" points="164.5,-13 164.5,-149 "/>
<path fill="none" stroke="black" d="M164.5,-149C164.5,-155 158.5,-161 152.5,-161"/>
<polyline fill="none" stroke="black" points="152.5,-161 11.5,-161 "/>
<path fill="none" stroke="black" d="M11.5,-161C5.5,-161 -0.5,-155 -0.5,-149"/>
<polyline fill="none" stroke="black" points="-0.5,-149 -0.5,-13 "/>
<path fill="none" stroke="black" d="M-0.5,-13C-0.5,-7 5.5,-1 11.5,-1"/>
<text text-anchor="middle" x="82" y="-144.4" font-family="Times Roman,serif" font-size="14.00">TextBlast</text>
<polyline fill="none" stroke="black" points="-0.5,-135 164.5,-135 "/>
<text text-anchor="start" x="7.5" y="-118.4" font-family="Times Roman,serif" font-size="14.00">id :integer</text>
<text text-anchor="start" x="7.5" y="-100.4" font-family="Times Roman,serif" font-size="14.00">done :boolean</text>
<text text-anchor="start" x="7.5" y="-82.4" font-family="Times Roman,serif" font-size="14.00">contents :string</text>
<text text-anchor="start" x="7.5" y="-64.4" font-family="Times Roman,serif" font-size="14.00">schedule :datetime</text>
<text text-anchor="start" x="7.5" y="-46.4" font-family="Times Roman,serif" font-size="14.00">created_at :datetime</text>
<text text-anchor="start" x="7.5" y="-28.4" font-family="Times Roman,serif" font-size="14.00">updated_at :datetime</text>
<text text-anchor="start" x="7.5" y="-10.4" font-family="Times Roman,serif" font-size="14.00">group_id :integer</text>
</g>
<!-- User -->
<g id="node5" class="node"><title>User</title>
<polyline fill="none" stroke="black" points="355,-685 585,-685 "/>
<path fill="none" stroke="black" d="M585,-685C591,-685 597,-691 597,-697"/>
<polyline fill="none" stroke="black" points="597,-697 597,-1085 "/>
<path fill="none" stroke="black" d="M597,-1085C597,-1091 591,-1097 585,-1097"/>
<polyline fill="none" stroke="black" points="585,-1097 355,-1097 "/>
<path fill="none" stroke="black" d="M355,-1097C349,-1097 343,-1091 343,-1085"/>
<polyline fill="none" stroke="black" points="343,-1085 343,-697 "/>
<path fill="none" stroke="black" d="M343,-697C343,-691 349,-685 355,-685"/>
<text text-anchor="middle" x="470" y="-1080.4" font-family="Times Roman,serif" font-size="14.00">User</text>
<polyline fill="none" stroke="black" points="343,-1071 597,-1071 "/>
<text text-anchor="start" x="351" y="-1054.4" font-family="Times Roman,serif" font-size="14.00">id :integer</text>
<text text-anchor="start" x="351" y="-1036.4" font-family="Times Roman,serif" font-size="14.00">email :string</text>
<text text-anchor="start" x="351" y="-1018.4" font-family="Times Roman,serif" font-size="14.00">encrypted_password :string</text>
<text text-anchor="start" x="351" y="-1000.4" font-family="Times Roman,serif" font-size="14.00">reset_password_token :string</text>
<text text-anchor="start" x="351" y="-982.4" font-family="Times Roman,serif" font-size="14.00">reset_password_sent_at :datetime</text>
<text text-anchor="start" x="351" y="-964.4" font-family="Times Roman,serif" font-size="14.00">remember_created_at :datetime</text>
<text text-anchor="start" x="351" y="-946.4" font-family="Times Roman,serif" font-size="14.00">sign_in_count :integer</text>
<text text-anchor="start" x="351" y="-928.4" font-family="Times Roman,serif" font-size="14.00">current_sign_in_at :datetime</text>
<text text-anchor="start" x="351" y="-910.4" font-family="Times Roman,serif" font-size="14.00">last_sign_in_at :datetime</text>
<text text-anchor="start" x="351" y="-892.4" font-family="Times Roman,serif" font-size="14.00">current_sign_in_ip :string</text>
<text text-anchor="start" x="351" y="-874.4" font-family="Times Roman,serif" font-size="14.00">last_sign_in_ip :string</text>
<text text-anchor="start" x="351" y="-856.4" font-family="Times Roman,serif" font-size="14.00">confirmation_token :string</text>
<text text-anchor="start" x="351" y="-838.4" font-family="Times Roman,serif" font-size="14.00">confirmed_at :datetime</text>
<text text-anchor="start" x="351" y="-820.4" font-family="Times Roman,serif" font-size="14.00">confirmation_sent_at :datetime</text>
<text text-anchor="start" x="351" y="-802.4" font-family="Times Roman,serif" font-size="14.00">unconfirmed_email :string</text>
<text text-anchor="start" x="351" y="-784.4" font-family="Times Roman,serif" font-size="14.00">first_name :string</text>
<text text-anchor="start" x="351" y="-766.4" font-family="Times Roman,serif" font-size="14.00">last_name :string</text>
<text text-anchor="start" x="351" y="-748.4" font-family="Times Roman,serif" font-size="14.00">phone :string</text>
<text text-anchor="start" x="351" y="-730.4" font-family="Times Roman,serif" font-size="14.00">company :string</text>
<text text-anchor="start" x="351" y="-712.4" font-family="Times Roman,serif" font-size="14.00">created_at :datetime</text>
<text text-anchor="start" x="351" y="-694.4" font-family="Times Roman,serif" font-size="14.00">updated_at :datetime</text>
</g>
<!-- User&#45;&gt;Event -->
<g id="edge12" class="edge"><title>User&#45;&gt;Event</title>
<path fill="none" stroke="#c04517" d="M402.381,-676.873C400.282,-670.225 398.212,-663.671 396.185,-657.253"/>
<ellipse fill="none" stroke="#c04517" cx="403.635" cy="-680.844" rx="4.00001" ry="4.00001"/>
<polygon fill="#c04517" stroke="#c04517" points="396.049,-656.823 397.329,-645.932 394.544,-652.055 393.038,-647.287 393.038,-647.287 393.038,-647.287 394.544,-652.055 388.747,-648.642 396.049,-656.823 396.049,-656.823"/>
</g>
<!-- Auth -->
<g id="node7" class="node"><title>Auth</title>
<polyline fill="none" stroke="black" points="473.5,-469 614.5,-469 "/>
<path fill="none" stroke="black" d="M614.5,-469C620.5,-469 626.5,-475 626.5,-481"/>
<polyline fill="none" stroke="black" points="626.5,-481 626.5,-617 "/>
<path fill="none" stroke="black" d="M626.5,-617C626.5,-623 620.5,-629 614.5,-629"/>
<polyline fill="none" stroke="black" points="614.5,-629 473.5,-629 "/>
<path fill="none" stroke="black" d="M473.5,-629C467.5,-629 461.5,-623 461.5,-617"/>
<polyline fill="none" stroke="black" points="461.5,-617 461.5,-481 "/>
<path fill="none" stroke="black" d="M461.5,-481C461.5,-475 467.5,-469 473.5,-469"/>
<text text-anchor="middle" x="544" y="-612.4" font-family="Times Roman,serif" font-size="14.00">Auth</text>
<polyline fill="none" stroke="black" points="461.5,-603 626.5,-603 "/>
<text text-anchor="start" x="469.5" y="-586.4" font-family="Times Roman,serif" font-size="14.00">id :integer</text>
<text text-anchor="start" x="469.5" y="-568.4" font-family="Times Roman,serif" font-size="14.00">token :string</text>
<text text-anchor="start" x="469.5" y="-550.4" font-family="Times Roman,serif" font-size="14.00">secret :string</text>
<text text-anchor="start" x="469.5" y="-532.4" font-family="Times Roman,serif" font-size="14.00">provider :string</text>
<text text-anchor="start" x="469.5" y="-514.4" font-family="Times Roman,serif" font-size="14.00">created_at :datetime</text>
<text text-anchor="start" x="469.5" y="-496.4" font-family="Times Roman,serif" font-size="14.00">updated_at :datetime</text>
<text text-anchor="start" x="469.5" y="-478.4" font-family="Times Roman,serif" font-size="14.00">user_id :integer</text>
</g>
<!-- User&#45;&gt;Auth -->
<g id="edge10" class="edge"><title>User&#45;&gt;Auth</title>
<path fill="none" stroke="#9ecfa1" d="M516.415,-676.487C519.214,-663.551 521.936,-650.972 524.511,-639.072"/>
<ellipse fill="none" stroke="#9ecfa1" cx="515.493" cy="-680.749" rx="4.00001" ry="4.00001"/>
<polygon fill="#9ecfa1" stroke="#9ecfa1" points="524.523,-639.017 531.036,-630.195 525.58,-634.13 526.638,-629.243 526.638,-629.243 526.638,-629.243 525.58,-634.13 522.239,-628.291 524.523,-639.017 524.523,-639.017"/>
</g>
<!-- Notifier -->
<g id="node6" class="node"><title>Notifier</title>
<polygon fill="none" stroke="black" points="717,-523 717,-575 785,-575 785,-523 717,-523"/>
<text text-anchor="middle" x="751" y="-558.4" font-family="Times Roman,serif" font-size="14.00">Notifier</text>
<polyline fill="none" stroke="black" points="717,-549 785,-549 "/>
<text text-anchor="middle" x="751" y="-532.4" font-family="Times Roman,serif" font-size="14.00"> </text>
</g>
<!-- Group&#45;&gt;TextBlast -->
<g id="edge16" class="edge"><title>Group&#45;&gt;TextBlast</title>
<path fill="none" stroke="#6d14d6" d="M144.808,-236.296C136.373,-215.439 127.005,-192.276 118.133,-170.341"/>
<ellipse fill="none" stroke="#6d14d6" cx="146.393" cy="-240.214" rx="4.00001" ry="4.00001"/>
<polygon fill="#6d14d6" stroke="#6d14d6" points="118.115,-170.296 118.538,-159.338 116.241,-165.661 114.366,-161.026 114.366,-161.026 114.366,-161.026 116.241,-165.661 110.194,-162.713 118.115,-170.296 118.115,-170.296"/>
</g>
<!-- EmailBlast -->
<g id="node11" class="node"><title>EmailBlast</title>
<polyline fill="none" stroke="black" points="193.5,-1 334.5,-1 "/>
<path fill="none" stroke="black" d="M334.5,-1C340.5,-1 346.5,-7 346.5,-13"/>
<polyline fill="none" stroke="black" points="346.5,-13 346.5,-149 "/>
<path fill="none" stroke="black" d="M346.5,-149C346.5,-155 340.5,-161 334.5,-161"/>
<polyline fill="none" stroke="black" points="334.5,-161 193.5,-161 "/>
<path fill="none" stroke="black" d="M193.5,-161C187.5,-161 181.5,-155 181.5,-149"/>
<polyline fill="none" stroke="black" points="181.5,-149 181.5,-13 "/>
<path fill="none" stroke="black" d="M181.5,-13C181.5,-7 187.5,-1 193.5,-1"/>
<text text-anchor="middle" x="264" y="-144.4" font-family="Times Roman,serif" font-size="14.00">EmailBlast</text>
<polyline fill="none" stroke="black" points="181.5,-135 346.5,-135 "/>
<text text-anchor="start" x="189.5" y="-118.4" font-family="Times Roman,serif" font-size="14.00">id :integer</text>
<text text-anchor="start" x="189.5" y="-100.4" font-family="Times Roman,serif" font-size="14.00">done :boolean</text>
<text text-anchor="start" x="189.5" y="-82.4" font-family="Times Roman,serif" font-size="14.00">contents :string</text>
<text text-anchor="start" x="189.5" y="-64.4" font-family="Times Roman,serif" font-size="14.00">schedule :datetime</text>
<text text-anchor="start" x="189.5" y="-46.4" font-family="Times Roman,serif" font-size="14.00">created_at :datetime</text>
<text text-anchor="start" x="189.5" y="-28.4" font-family="Times Roman,serif" font-size="14.00">updated_at :datetime</text>
<text text-anchor="start" x="189.5" y="-10.4" font-family="Times Roman,serif" font-size="14.00">group_id :integer</text>
</g>
<!-- Group&#45;&gt;EmailBlast -->
<g id="edge18" class="edge"><title>Group&#45;&gt;EmailBlast</title>
<path fill="none" stroke="#8227d1" d="M201.192,-236.296C209.627,-215.439 218.995,-192.276 227.867,-170.341"/>
<ellipse fill="none" stroke="#8227d1" cx="199.607" cy="-240.214" rx="4.00001" ry="4.00001"/>
<polygon fill="#8227d1" stroke="#8227d1" points="227.885,-170.296 235.806,-162.713 229.759,-165.661 231.634,-161.026 231.634,-161.026 231.634,-161.026 229.759,-165.661 227.462,-159.338 227.885,-170.296 227.885,-170.296"/>
</g>
<!-- ActionMailer::Base -->
<g id="node18" class="node"><title>ActionMailer::Base</title>
<ellipse fill="none" stroke="black" cx="751" cy="-891" rx="101.823" ry="18.3848"/>
<text text-anchor="middle" x="751" y="-887.4" font-family="Times Roman,serif" font-size="14.00">ActionMailer::Base</text>
</g>
<!-- ActionMailer::Base&#45;&gt;Notifier -->
<g id="edge14" class="edge"><title>ActionMailer::Base&#45;&gt;Notifier</title>
<path fill="none" stroke="black" d="M751,-872.125C751,-814.572 751,-641.203 751,-575.042"/>
</g>
</g>
</svg>
